%TF.GenerationSoftware,KiCad,Pcbnew,10.0.4*%
%TF.CreationDate,2026-07-20T01:23:54-03:00*%
%TF.ProjectId,Tanque_Cisterna_Web_Control_ESP32,54616e71-7565-45f4-9369-737465726e61,rev?*%
%TF.SameCoordinates,Original*%
%TF.FileFunction,Legend,Top*%
%TF.FilePolarity,Positive*%
%FSLAX46Y46*%
G04 Gerber Fmt 4.6, Leading zero omitted, Abs format (unit mm)*
G04 Created by KiCad (PCBNEW 10.0.4) date 2026-07-20 01:23:54*
%MOMM*%
%LPD*%
G01*
G04 APERTURE LIST*
%ADD10C,0.150000*%
%ADD11C,0.120000*%
G04 APERTURE END LIST*
D10*
X148038095Y-59074819D02*
X148038095Y-59884342D01*
X148038095Y-59884342D02*
X148085714Y-59979580D01*
X148085714Y-59979580D02*
X148133333Y-60027200D01*
X148133333Y-60027200D02*
X148228571Y-60074819D01*
X148228571Y-60074819D02*
X148419047Y-60074819D01*
X148419047Y-60074819D02*
X148514285Y-60027200D01*
X148514285Y-60027200D02*
X148561904Y-59979580D01*
X148561904Y-59979580D02*
X148609523Y-59884342D01*
X148609523Y-59884342D02*
X148609523Y-59074819D01*
X149609523Y-60074819D02*
X149038095Y-60074819D01*
X149323809Y-60074819D02*
X149323809Y-59074819D01*
X149323809Y-59074819D02*
X149228571Y-59217676D01*
X149228571Y-59217676D02*
X149133333Y-59312914D01*
X149133333Y-59312914D02*
X149038095Y-59360533D01*
X148731009Y-91445237D02*
X148731009Y-91111904D01*
X149254819Y-90969047D02*
X149254819Y-91445237D01*
X149254819Y-91445237D02*
X148254819Y-91445237D01*
X148254819Y-91445237D02*
X148254819Y-90969047D01*
X149207200Y-90588094D02*
X149254819Y-90445237D01*
X149254819Y-90445237D02*
X149254819Y-90207142D01*
X149254819Y-90207142D02*
X149207200Y-90111904D01*
X149207200Y-90111904D02*
X149159580Y-90064285D01*
X149159580Y-90064285D02*
X149064342Y-90016666D01*
X149064342Y-90016666D02*
X148969104Y-90016666D01*
X148969104Y-90016666D02*
X148873866Y-90064285D01*
X148873866Y-90064285D02*
X148826247Y-90111904D01*
X148826247Y-90111904D02*
X148778628Y-90207142D01*
X148778628Y-90207142D02*
X148731009Y-90397618D01*
X148731009Y-90397618D02*
X148683390Y-90492856D01*
X148683390Y-90492856D02*
X148635771Y-90540475D01*
X148635771Y-90540475D02*
X148540533Y-90588094D01*
X148540533Y-90588094D02*
X148445295Y-90588094D01*
X148445295Y-90588094D02*
X148350057Y-90540475D01*
X148350057Y-90540475D02*
X148302438Y-90492856D01*
X148302438Y-90492856D02*
X148254819Y-90397618D01*
X148254819Y-90397618D02*
X148254819Y-90159523D01*
X148254819Y-90159523D02*
X148302438Y-90016666D01*
X149254819Y-89588094D02*
X148254819Y-89588094D01*
X148254819Y-89588094D02*
X148254819Y-89207142D01*
X148254819Y-89207142D02*
X148302438Y-89111904D01*
X148302438Y-89111904D02*
X148350057Y-89064285D01*
X148350057Y-89064285D02*
X148445295Y-89016666D01*
X148445295Y-89016666D02*
X148588152Y-89016666D01*
X148588152Y-89016666D02*
X148683390Y-89064285D01*
X148683390Y-89064285D02*
X148731009Y-89111904D01*
X148731009Y-89111904D02*
X148778628Y-89207142D01*
X148778628Y-89207142D02*
X148778628Y-89588094D01*
X148254819Y-88683332D02*
X148254819Y-88064285D01*
X148254819Y-88064285D02*
X148635771Y-88397618D01*
X148635771Y-88397618D02*
X148635771Y-88254761D01*
X148635771Y-88254761D02*
X148683390Y-88159523D01*
X148683390Y-88159523D02*
X148731009Y-88111904D01*
X148731009Y-88111904D02*
X148826247Y-88064285D01*
X148826247Y-88064285D02*
X149064342Y-88064285D01*
X149064342Y-88064285D02*
X149159580Y-88111904D01*
X149159580Y-88111904D02*
X149207200Y-88159523D01*
X149207200Y-88159523D02*
X149254819Y-88254761D01*
X149254819Y-88254761D02*
X149254819Y-88540475D01*
X149254819Y-88540475D02*
X149207200Y-88635713D01*
X149207200Y-88635713D02*
X149159580Y-88683332D01*
X148350057Y-87683332D02*
X148302438Y-87635713D01*
X148302438Y-87635713D02*
X148254819Y-87540475D01*
X148254819Y-87540475D02*
X148254819Y-87302380D01*
X148254819Y-87302380D02*
X148302438Y-87207142D01*
X148302438Y-87207142D02*
X148350057Y-87159523D01*
X148350057Y-87159523D02*
X148445295Y-87111904D01*
X148445295Y-87111904D02*
X148540533Y-87111904D01*
X148540533Y-87111904D02*
X148683390Y-87159523D01*
X148683390Y-87159523D02*
X149254819Y-87730951D01*
X149254819Y-87730951D02*
X149254819Y-87111904D01*
X148873866Y-86683332D02*
X148873866Y-85921428D01*
X149254819Y-85445237D02*
X148254819Y-85445237D01*
X148254819Y-85445237D02*
X148254819Y-85207142D01*
X148254819Y-85207142D02*
X148302438Y-85064285D01*
X148302438Y-85064285D02*
X148397676Y-84969047D01*
X148397676Y-84969047D02*
X148492914Y-84921428D01*
X148492914Y-84921428D02*
X148683390Y-84873809D01*
X148683390Y-84873809D02*
X148826247Y-84873809D01*
X148826247Y-84873809D02*
X149016723Y-84921428D01*
X149016723Y-84921428D02*
X149111961Y-84969047D01*
X149111961Y-84969047D02*
X149207200Y-85064285D01*
X149207200Y-85064285D02*
X149254819Y-85207142D01*
X149254819Y-85207142D02*
X149254819Y-85445237D01*
X149207200Y-84064285D02*
X149254819Y-84159523D01*
X149254819Y-84159523D02*
X149254819Y-84349999D01*
X149254819Y-84349999D02*
X149207200Y-84445237D01*
X149207200Y-84445237D02*
X149111961Y-84492856D01*
X149111961Y-84492856D02*
X148731009Y-84492856D01*
X148731009Y-84492856D02*
X148635771Y-84445237D01*
X148635771Y-84445237D02*
X148588152Y-84349999D01*
X148588152Y-84349999D02*
X148588152Y-84159523D01*
X148588152Y-84159523D02*
X148635771Y-84064285D01*
X148635771Y-84064285D02*
X148731009Y-84016666D01*
X148731009Y-84016666D02*
X148826247Y-84016666D01*
X148826247Y-84016666D02*
X148921485Y-84492856D01*
X148588152Y-83683332D02*
X149254819Y-83445237D01*
X149254819Y-83445237D02*
X148588152Y-83207142D01*
X149254819Y-82826189D02*
X148254819Y-82826189D01*
X149254819Y-82254761D02*
X148683390Y-82683332D01*
X148254819Y-82254761D02*
X148826247Y-82826189D01*
X149254819Y-81826189D02*
X148588152Y-81826189D01*
X148254819Y-81826189D02*
X148302438Y-81873808D01*
X148302438Y-81873808D02*
X148350057Y-81826189D01*
X148350057Y-81826189D02*
X148302438Y-81778570D01*
X148302438Y-81778570D02*
X148254819Y-81826189D01*
X148254819Y-81826189D02*
X148350057Y-81826189D01*
X148588152Y-81492856D02*
X148588152Y-81111904D01*
X148254819Y-81349999D02*
X149111961Y-81349999D01*
X149111961Y-81349999D02*
X149207200Y-81302380D01*
X149207200Y-81302380D02*
X149254819Y-81207142D01*
X149254819Y-81207142D02*
X149254819Y-81111904D01*
X149159580Y-80207142D02*
X149207200Y-80254761D01*
X149207200Y-80254761D02*
X149254819Y-80397618D01*
X149254819Y-80397618D02*
X149254819Y-80492856D01*
X149254819Y-80492856D02*
X149207200Y-80635713D01*
X149207200Y-80635713D02*
X149111961Y-80730951D01*
X149111961Y-80730951D02*
X149016723Y-80778570D01*
X149016723Y-80778570D02*
X148826247Y-80826189D01*
X148826247Y-80826189D02*
X148683390Y-80826189D01*
X148683390Y-80826189D02*
X148492914Y-80778570D01*
X148492914Y-80778570D02*
X148397676Y-80730951D01*
X148397676Y-80730951D02*
X148302438Y-80635713D01*
X148302438Y-80635713D02*
X148254819Y-80492856D01*
X148254819Y-80492856D02*
X148254819Y-80397618D01*
X148254819Y-80397618D02*
X148302438Y-80254761D01*
X148302438Y-80254761D02*
X148350057Y-80207142D01*
X138179289Y-107146099D02*
X137703099Y-107146099D01*
X137703099Y-107146099D02*
X137655480Y-107622289D01*
X137655480Y-107622289D02*
X137703099Y-107574670D01*
X137703099Y-107574670D02*
X137798337Y-107527051D01*
X137798337Y-107527051D02*
X138036432Y-107527051D01*
X138036432Y-107527051D02*
X138131670Y-107574670D01*
X138131670Y-107574670D02*
X138179289Y-107622289D01*
X138179289Y-107622289D02*
X138226908Y-107717527D01*
X138226908Y-107717527D02*
X138226908Y-107955622D01*
X138226908Y-107955622D02*
X138179289Y-108050860D01*
X138179289Y-108050860D02*
X138131670Y-108098480D01*
X138131670Y-108098480D02*
X138036432Y-108146099D01*
X138036432Y-108146099D02*
X137798337Y-108146099D01*
X137798337Y-108146099D02*
X137703099Y-108098480D01*
X137703099Y-108098480D02*
X137655480Y-108050860D01*
X138512623Y-107146099D02*
X138845956Y-108146099D01*
X138845956Y-108146099D02*
X139179289Y-107146099D01*
X137611541Y-61174819D02*
X138230588Y-61174819D01*
X138230588Y-61174819D02*
X137897255Y-61555771D01*
X137897255Y-61555771D02*
X138040112Y-61555771D01*
X138040112Y-61555771D02*
X138135350Y-61603390D01*
X138135350Y-61603390D02*
X138182969Y-61651009D01*
X138182969Y-61651009D02*
X138230588Y-61746247D01*
X138230588Y-61746247D02*
X138230588Y-61984342D01*
X138230588Y-61984342D02*
X138182969Y-62079580D01*
X138182969Y-62079580D02*
X138135350Y-62127200D01*
X138135350Y-62127200D02*
X138040112Y-62174819D01*
X138040112Y-62174819D02*
X137754398Y-62174819D01*
X137754398Y-62174819D02*
X137659160Y-62127200D01*
X137659160Y-62127200D02*
X137611541Y-62079580D01*
X138516303Y-61174819D02*
X138849636Y-62174819D01*
X138849636Y-62174819D02*
X139182969Y-61174819D01*
X139421065Y-61174819D02*
X140040112Y-61174819D01*
X140040112Y-61174819D02*
X139706779Y-61555771D01*
X139706779Y-61555771D02*
X139849636Y-61555771D01*
X139849636Y-61555771D02*
X139944874Y-61603390D01*
X139944874Y-61603390D02*
X139992493Y-61651009D01*
X139992493Y-61651009D02*
X140040112Y-61746247D01*
X140040112Y-61746247D02*
X140040112Y-61984342D01*
X140040112Y-61984342D02*
X139992493Y-62079580D01*
X139992493Y-62079580D02*
X139944874Y-62127200D01*
X139944874Y-62127200D02*
X139849636Y-62174819D01*
X139849636Y-62174819D02*
X139563922Y-62174819D01*
X139563922Y-62174819D02*
X139468684Y-62127200D01*
X139468684Y-62127200D02*
X139421065Y-62079580D01*
X137535350Y-66416033D02*
X137768684Y-67116033D01*
X137768684Y-67116033D02*
X138002017Y-66416033D01*
X138235350Y-67116033D02*
X138235350Y-66416033D01*
X138235350Y-66416033D02*
X138502017Y-66416033D01*
X138502017Y-66416033D02*
X138568684Y-66449366D01*
X138568684Y-66449366D02*
X138602017Y-66482700D01*
X138602017Y-66482700D02*
X138635350Y-66549366D01*
X138635350Y-66549366D02*
X138635350Y-66649366D01*
X138635350Y-66649366D02*
X138602017Y-66716033D01*
X138602017Y-66716033D02*
X138568684Y-66749366D01*
X138568684Y-66749366D02*
X138502017Y-66782700D01*
X138502017Y-66782700D02*
X138235350Y-66782700D01*
X139435350Y-66382700D02*
X138835350Y-67282700D01*
X140035350Y-66449366D02*
X139968683Y-66416033D01*
X139968683Y-66416033D02*
X139868683Y-66416033D01*
X139868683Y-66416033D02*
X139768683Y-66449366D01*
X139768683Y-66449366D02*
X139702017Y-66516033D01*
X139702017Y-66516033D02*
X139668683Y-66582700D01*
X139668683Y-66582700D02*
X139635350Y-66716033D01*
X139635350Y-66716033D02*
X139635350Y-66816033D01*
X139635350Y-66816033D02*
X139668683Y-66949366D01*
X139668683Y-66949366D02*
X139702017Y-67016033D01*
X139702017Y-67016033D02*
X139768683Y-67082700D01*
X139768683Y-67082700D02*
X139868683Y-67116033D01*
X139868683Y-67116033D02*
X139935350Y-67116033D01*
X139935350Y-67116033D02*
X140035350Y-67082700D01*
X140035350Y-67082700D02*
X140068683Y-67049366D01*
X140068683Y-67049366D02*
X140068683Y-66816033D01*
X140068683Y-66816033D02*
X139935350Y-66816033D01*
X140368683Y-67116033D02*
X140368683Y-66416033D01*
X140368683Y-66416033D02*
X140635350Y-66416033D01*
X140635350Y-66416033D02*
X140702017Y-66449366D01*
X140702017Y-66449366D02*
X140735350Y-66482700D01*
X140735350Y-66482700D02*
X140768683Y-66549366D01*
X140768683Y-66549366D02*
X140768683Y-66649366D01*
X140768683Y-66649366D02*
X140735350Y-66716033D01*
X140735350Y-66716033D02*
X140702017Y-66749366D01*
X140702017Y-66749366D02*
X140635350Y-66782700D01*
X140635350Y-66782700D02*
X140368683Y-66782700D01*
X141068683Y-67116033D02*
X141068683Y-66416033D01*
X141535350Y-66416033D02*
X141668683Y-66416033D01*
X141668683Y-66416033D02*
X141735350Y-66449366D01*
X141735350Y-66449366D02*
X141802016Y-66516033D01*
X141802016Y-66516033D02*
X141835350Y-66649366D01*
X141835350Y-66649366D02*
X141835350Y-66882700D01*
X141835350Y-66882700D02*
X141802016Y-67016033D01*
X141802016Y-67016033D02*
X141735350Y-67082700D01*
X141735350Y-67082700D02*
X141668683Y-67116033D01*
X141668683Y-67116033D02*
X141535350Y-67116033D01*
X141535350Y-67116033D02*
X141468683Y-67082700D01*
X141468683Y-67082700D02*
X141402016Y-67016033D01*
X141402016Y-67016033D02*
X141368683Y-66882700D01*
X141368683Y-66882700D02*
X141368683Y-66649366D01*
X141368683Y-66649366D02*
X141402016Y-66516033D01*
X141402016Y-66516033D02*
X141468683Y-66449366D01*
X141468683Y-66449366D02*
X141535350Y-66416033D01*
X142068683Y-66416033D02*
X142502016Y-66416033D01*
X142502016Y-66416033D02*
X142268683Y-66682700D01*
X142268683Y-66682700D02*
X142368683Y-66682700D01*
X142368683Y-66682700D02*
X142435349Y-66716033D01*
X142435349Y-66716033D02*
X142468683Y-66749366D01*
X142468683Y-66749366D02*
X142502016Y-66816033D01*
X142502016Y-66816033D02*
X142502016Y-66982700D01*
X142502016Y-66982700D02*
X142468683Y-67049366D01*
X142468683Y-67049366D02*
X142435349Y-67082700D01*
X142435349Y-67082700D02*
X142368683Y-67116033D01*
X142368683Y-67116033D02*
X142168683Y-67116033D01*
X142168683Y-67116033D02*
X142102016Y-67082700D01*
X142102016Y-67082700D02*
X142068683Y-67049366D01*
X143102016Y-66416033D02*
X142968683Y-66416033D01*
X142968683Y-66416033D02*
X142902016Y-66449366D01*
X142902016Y-66449366D02*
X142868683Y-66482700D01*
X142868683Y-66482700D02*
X142802016Y-66582700D01*
X142802016Y-66582700D02*
X142768683Y-66716033D01*
X142768683Y-66716033D02*
X142768683Y-66982700D01*
X142768683Y-66982700D02*
X142802016Y-67049366D01*
X142802016Y-67049366D02*
X142835350Y-67082700D01*
X142835350Y-67082700D02*
X142902016Y-67116033D01*
X142902016Y-67116033D02*
X143035350Y-67116033D01*
X143035350Y-67116033D02*
X143102016Y-67082700D01*
X143102016Y-67082700D02*
X143135350Y-67049366D01*
X143135350Y-67049366D02*
X143168683Y-66982700D01*
X143168683Y-66982700D02*
X143168683Y-66816033D01*
X143168683Y-66816033D02*
X143135350Y-66749366D01*
X143135350Y-66749366D02*
X143102016Y-66716033D01*
X143102016Y-66716033D02*
X143035350Y-66682700D01*
X143035350Y-66682700D02*
X142902016Y-66682700D01*
X142902016Y-66682700D02*
X142835350Y-66716033D01*
X142835350Y-66716033D02*
X142802016Y-66749366D01*
X142802016Y-66749366D02*
X142768683Y-66816033D01*
X137535350Y-68956033D02*
X137768684Y-69656033D01*
X137768684Y-69656033D02*
X138002017Y-68956033D01*
X138235350Y-69656033D02*
X138235350Y-68956033D01*
X138235350Y-68956033D02*
X138635350Y-69656033D01*
X138635350Y-69656033D02*
X138635350Y-68956033D01*
X139468683Y-68922700D02*
X138868683Y-69822700D01*
X140068683Y-68989366D02*
X140002016Y-68956033D01*
X140002016Y-68956033D02*
X139902016Y-68956033D01*
X139902016Y-68956033D02*
X139802016Y-68989366D01*
X139802016Y-68989366D02*
X139735350Y-69056033D01*
X139735350Y-69056033D02*
X139702016Y-69122700D01*
X139702016Y-69122700D02*
X139668683Y-69256033D01*
X139668683Y-69256033D02*
X139668683Y-69356033D01*
X139668683Y-69356033D02*
X139702016Y-69489366D01*
X139702016Y-69489366D02*
X139735350Y-69556033D01*
X139735350Y-69556033D02*
X139802016Y-69622700D01*
X139802016Y-69622700D02*
X139902016Y-69656033D01*
X139902016Y-69656033D02*
X139968683Y-69656033D01*
X139968683Y-69656033D02*
X140068683Y-69622700D01*
X140068683Y-69622700D02*
X140102016Y-69589366D01*
X140102016Y-69589366D02*
X140102016Y-69356033D01*
X140102016Y-69356033D02*
X139968683Y-69356033D01*
X140402016Y-69656033D02*
X140402016Y-68956033D01*
X140402016Y-68956033D02*
X140668683Y-68956033D01*
X140668683Y-68956033D02*
X140735350Y-68989366D01*
X140735350Y-68989366D02*
X140768683Y-69022700D01*
X140768683Y-69022700D02*
X140802016Y-69089366D01*
X140802016Y-69089366D02*
X140802016Y-69189366D01*
X140802016Y-69189366D02*
X140768683Y-69256033D01*
X140768683Y-69256033D02*
X140735350Y-69289366D01*
X140735350Y-69289366D02*
X140668683Y-69322700D01*
X140668683Y-69322700D02*
X140402016Y-69322700D01*
X141102016Y-69656033D02*
X141102016Y-68956033D01*
X141568683Y-68956033D02*
X141702016Y-68956033D01*
X141702016Y-68956033D02*
X141768683Y-68989366D01*
X141768683Y-68989366D02*
X141835349Y-69056033D01*
X141835349Y-69056033D02*
X141868683Y-69189366D01*
X141868683Y-69189366D02*
X141868683Y-69422700D01*
X141868683Y-69422700D02*
X141835349Y-69556033D01*
X141835349Y-69556033D02*
X141768683Y-69622700D01*
X141768683Y-69622700D02*
X141702016Y-69656033D01*
X141702016Y-69656033D02*
X141568683Y-69656033D01*
X141568683Y-69656033D02*
X141502016Y-69622700D01*
X141502016Y-69622700D02*
X141435349Y-69556033D01*
X141435349Y-69556033D02*
X141402016Y-69422700D01*
X141402016Y-69422700D02*
X141402016Y-69189366D01*
X141402016Y-69189366D02*
X141435349Y-69056033D01*
X141435349Y-69056033D02*
X141502016Y-68989366D01*
X141502016Y-68989366D02*
X141568683Y-68956033D01*
X142102016Y-68956033D02*
X142535349Y-68956033D01*
X142535349Y-68956033D02*
X142302016Y-69222700D01*
X142302016Y-69222700D02*
X142402016Y-69222700D01*
X142402016Y-69222700D02*
X142468682Y-69256033D01*
X142468682Y-69256033D02*
X142502016Y-69289366D01*
X142502016Y-69289366D02*
X142535349Y-69356033D01*
X142535349Y-69356033D02*
X142535349Y-69522700D01*
X142535349Y-69522700D02*
X142502016Y-69589366D01*
X142502016Y-69589366D02*
X142468682Y-69622700D01*
X142468682Y-69622700D02*
X142402016Y-69656033D01*
X142402016Y-69656033D02*
X142202016Y-69656033D01*
X142202016Y-69656033D02*
X142135349Y-69622700D01*
X142135349Y-69622700D02*
X142102016Y-69589366D01*
X142868683Y-69656033D02*
X143002016Y-69656033D01*
X143002016Y-69656033D02*
X143068683Y-69622700D01*
X143068683Y-69622700D02*
X143102016Y-69589366D01*
X143102016Y-69589366D02*
X143168683Y-69489366D01*
X143168683Y-69489366D02*
X143202016Y-69356033D01*
X143202016Y-69356033D02*
X143202016Y-69089366D01*
X143202016Y-69089366D02*
X143168683Y-69022700D01*
X143168683Y-69022700D02*
X143135349Y-68989366D01*
X143135349Y-68989366D02*
X143068683Y-68956033D01*
X143068683Y-68956033D02*
X142935349Y-68956033D01*
X142935349Y-68956033D02*
X142868683Y-68989366D01*
X142868683Y-68989366D02*
X142835349Y-69022700D01*
X142835349Y-69022700D02*
X142802016Y-69089366D01*
X142802016Y-69089366D02*
X142802016Y-69256033D01*
X142802016Y-69256033D02*
X142835349Y-69322700D01*
X142835349Y-69322700D02*
X142868683Y-69356033D01*
X142868683Y-69356033D02*
X142935349Y-69389366D01*
X142935349Y-69389366D02*
X143068683Y-69389366D01*
X143068683Y-69389366D02*
X143135349Y-69356033D01*
X143135349Y-69356033D02*
X143168683Y-69322700D01*
X143168683Y-69322700D02*
X143202016Y-69256033D01*
X138002017Y-71529366D02*
X137935350Y-71496033D01*
X137935350Y-71496033D02*
X137835350Y-71496033D01*
X137835350Y-71496033D02*
X137735350Y-71529366D01*
X137735350Y-71529366D02*
X137668684Y-71596033D01*
X137668684Y-71596033D02*
X137635350Y-71662700D01*
X137635350Y-71662700D02*
X137602017Y-71796033D01*
X137602017Y-71796033D02*
X137602017Y-71896033D01*
X137602017Y-71896033D02*
X137635350Y-72029366D01*
X137635350Y-72029366D02*
X137668684Y-72096033D01*
X137668684Y-72096033D02*
X137735350Y-72162700D01*
X137735350Y-72162700D02*
X137835350Y-72196033D01*
X137835350Y-72196033D02*
X137902017Y-72196033D01*
X137902017Y-72196033D02*
X138002017Y-72162700D01*
X138002017Y-72162700D02*
X138035350Y-72129366D01*
X138035350Y-72129366D02*
X138035350Y-71896033D01*
X138035350Y-71896033D02*
X137902017Y-71896033D01*
X138335350Y-72196033D02*
X138335350Y-71496033D01*
X138335350Y-71496033D02*
X138602017Y-71496033D01*
X138602017Y-71496033D02*
X138668684Y-71529366D01*
X138668684Y-71529366D02*
X138702017Y-71562700D01*
X138702017Y-71562700D02*
X138735350Y-71629366D01*
X138735350Y-71629366D02*
X138735350Y-71729366D01*
X138735350Y-71729366D02*
X138702017Y-71796033D01*
X138702017Y-71796033D02*
X138668684Y-71829366D01*
X138668684Y-71829366D02*
X138602017Y-71862700D01*
X138602017Y-71862700D02*
X138335350Y-71862700D01*
X139035350Y-72196033D02*
X139035350Y-71496033D01*
X139502017Y-71496033D02*
X139635350Y-71496033D01*
X139635350Y-71496033D02*
X139702017Y-71529366D01*
X139702017Y-71529366D02*
X139768683Y-71596033D01*
X139768683Y-71596033D02*
X139802017Y-71729366D01*
X139802017Y-71729366D02*
X139802017Y-71962700D01*
X139802017Y-71962700D02*
X139768683Y-72096033D01*
X139768683Y-72096033D02*
X139702017Y-72162700D01*
X139702017Y-72162700D02*
X139635350Y-72196033D01*
X139635350Y-72196033D02*
X139502017Y-72196033D01*
X139502017Y-72196033D02*
X139435350Y-72162700D01*
X139435350Y-72162700D02*
X139368683Y-72096033D01*
X139368683Y-72096033D02*
X139335350Y-71962700D01*
X139335350Y-71962700D02*
X139335350Y-71729366D01*
X139335350Y-71729366D02*
X139368683Y-71596033D01*
X139368683Y-71596033D02*
X139435350Y-71529366D01*
X139435350Y-71529366D02*
X139502017Y-71496033D01*
X140035350Y-71496033D02*
X140468683Y-71496033D01*
X140468683Y-71496033D02*
X140235350Y-71762700D01*
X140235350Y-71762700D02*
X140335350Y-71762700D01*
X140335350Y-71762700D02*
X140402016Y-71796033D01*
X140402016Y-71796033D02*
X140435350Y-71829366D01*
X140435350Y-71829366D02*
X140468683Y-71896033D01*
X140468683Y-71896033D02*
X140468683Y-72062700D01*
X140468683Y-72062700D02*
X140435350Y-72129366D01*
X140435350Y-72129366D02*
X140402016Y-72162700D01*
X140402016Y-72162700D02*
X140335350Y-72196033D01*
X140335350Y-72196033D02*
X140135350Y-72196033D01*
X140135350Y-72196033D02*
X140068683Y-72162700D01*
X140068683Y-72162700D02*
X140035350Y-72129366D01*
X141068683Y-71729366D02*
X141068683Y-72196033D01*
X140902017Y-71462700D02*
X140735350Y-71962700D01*
X140735350Y-71962700D02*
X141168683Y-71962700D01*
X138002017Y-74069366D02*
X137935350Y-74036033D01*
X137935350Y-74036033D02*
X137835350Y-74036033D01*
X137835350Y-74036033D02*
X137735350Y-74069366D01*
X137735350Y-74069366D02*
X137668684Y-74136033D01*
X137668684Y-74136033D02*
X137635350Y-74202700D01*
X137635350Y-74202700D02*
X137602017Y-74336033D01*
X137602017Y-74336033D02*
X137602017Y-74436033D01*
X137602017Y-74436033D02*
X137635350Y-74569366D01*
X137635350Y-74569366D02*
X137668684Y-74636033D01*
X137668684Y-74636033D02*
X137735350Y-74702700D01*
X137735350Y-74702700D02*
X137835350Y-74736033D01*
X137835350Y-74736033D02*
X137902017Y-74736033D01*
X137902017Y-74736033D02*
X138002017Y-74702700D01*
X138002017Y-74702700D02*
X138035350Y-74669366D01*
X138035350Y-74669366D02*
X138035350Y-74436033D01*
X138035350Y-74436033D02*
X137902017Y-74436033D01*
X138335350Y-74736033D02*
X138335350Y-74036033D01*
X138335350Y-74036033D02*
X138602017Y-74036033D01*
X138602017Y-74036033D02*
X138668684Y-74069366D01*
X138668684Y-74069366D02*
X138702017Y-74102700D01*
X138702017Y-74102700D02*
X138735350Y-74169366D01*
X138735350Y-74169366D02*
X138735350Y-74269366D01*
X138735350Y-74269366D02*
X138702017Y-74336033D01*
X138702017Y-74336033D02*
X138668684Y-74369366D01*
X138668684Y-74369366D02*
X138602017Y-74402700D01*
X138602017Y-74402700D02*
X138335350Y-74402700D01*
X139035350Y-74736033D02*
X139035350Y-74036033D01*
X139502017Y-74036033D02*
X139635350Y-74036033D01*
X139635350Y-74036033D02*
X139702017Y-74069366D01*
X139702017Y-74069366D02*
X139768683Y-74136033D01*
X139768683Y-74136033D02*
X139802017Y-74269366D01*
X139802017Y-74269366D02*
X139802017Y-74502700D01*
X139802017Y-74502700D02*
X139768683Y-74636033D01*
X139768683Y-74636033D02*
X139702017Y-74702700D01*
X139702017Y-74702700D02*
X139635350Y-74736033D01*
X139635350Y-74736033D02*
X139502017Y-74736033D01*
X139502017Y-74736033D02*
X139435350Y-74702700D01*
X139435350Y-74702700D02*
X139368683Y-74636033D01*
X139368683Y-74636033D02*
X139335350Y-74502700D01*
X139335350Y-74502700D02*
X139335350Y-74269366D01*
X139335350Y-74269366D02*
X139368683Y-74136033D01*
X139368683Y-74136033D02*
X139435350Y-74069366D01*
X139435350Y-74069366D02*
X139502017Y-74036033D01*
X140035350Y-74036033D02*
X140468683Y-74036033D01*
X140468683Y-74036033D02*
X140235350Y-74302700D01*
X140235350Y-74302700D02*
X140335350Y-74302700D01*
X140335350Y-74302700D02*
X140402016Y-74336033D01*
X140402016Y-74336033D02*
X140435350Y-74369366D01*
X140435350Y-74369366D02*
X140468683Y-74436033D01*
X140468683Y-74436033D02*
X140468683Y-74602700D01*
X140468683Y-74602700D02*
X140435350Y-74669366D01*
X140435350Y-74669366D02*
X140402016Y-74702700D01*
X140402016Y-74702700D02*
X140335350Y-74736033D01*
X140335350Y-74736033D02*
X140135350Y-74736033D01*
X140135350Y-74736033D02*
X140068683Y-74702700D01*
X140068683Y-74702700D02*
X140035350Y-74669366D01*
X141102017Y-74036033D02*
X140768683Y-74036033D01*
X140768683Y-74036033D02*
X140735350Y-74369366D01*
X140735350Y-74369366D02*
X140768683Y-74336033D01*
X140768683Y-74336033D02*
X140835350Y-74302700D01*
X140835350Y-74302700D02*
X141002017Y-74302700D01*
X141002017Y-74302700D02*
X141068683Y-74336033D01*
X141068683Y-74336033D02*
X141102017Y-74369366D01*
X141102017Y-74369366D02*
X141135350Y-74436033D01*
X141135350Y-74436033D02*
X141135350Y-74602700D01*
X141135350Y-74602700D02*
X141102017Y-74669366D01*
X141102017Y-74669366D02*
X141068683Y-74702700D01*
X141068683Y-74702700D02*
X141002017Y-74736033D01*
X141002017Y-74736033D02*
X140835350Y-74736033D01*
X140835350Y-74736033D02*
X140768683Y-74702700D01*
X140768683Y-74702700D02*
X140735350Y-74669366D01*
X138002017Y-76609366D02*
X137935350Y-76576033D01*
X137935350Y-76576033D02*
X137835350Y-76576033D01*
X137835350Y-76576033D02*
X137735350Y-76609366D01*
X137735350Y-76609366D02*
X137668684Y-76676033D01*
X137668684Y-76676033D02*
X137635350Y-76742700D01*
X137635350Y-76742700D02*
X137602017Y-76876033D01*
X137602017Y-76876033D02*
X137602017Y-76976033D01*
X137602017Y-76976033D02*
X137635350Y-77109366D01*
X137635350Y-77109366D02*
X137668684Y-77176033D01*
X137668684Y-77176033D02*
X137735350Y-77242700D01*
X137735350Y-77242700D02*
X137835350Y-77276033D01*
X137835350Y-77276033D02*
X137902017Y-77276033D01*
X137902017Y-77276033D02*
X138002017Y-77242700D01*
X138002017Y-77242700D02*
X138035350Y-77209366D01*
X138035350Y-77209366D02*
X138035350Y-76976033D01*
X138035350Y-76976033D02*
X137902017Y-76976033D01*
X138335350Y-77276033D02*
X138335350Y-76576033D01*
X138335350Y-76576033D02*
X138602017Y-76576033D01*
X138602017Y-76576033D02*
X138668684Y-76609366D01*
X138668684Y-76609366D02*
X138702017Y-76642700D01*
X138702017Y-76642700D02*
X138735350Y-76709366D01*
X138735350Y-76709366D02*
X138735350Y-76809366D01*
X138735350Y-76809366D02*
X138702017Y-76876033D01*
X138702017Y-76876033D02*
X138668684Y-76909366D01*
X138668684Y-76909366D02*
X138602017Y-76942700D01*
X138602017Y-76942700D02*
X138335350Y-76942700D01*
X139035350Y-77276033D02*
X139035350Y-76576033D01*
X139502017Y-76576033D02*
X139635350Y-76576033D01*
X139635350Y-76576033D02*
X139702017Y-76609366D01*
X139702017Y-76609366D02*
X139768683Y-76676033D01*
X139768683Y-76676033D02*
X139802017Y-76809366D01*
X139802017Y-76809366D02*
X139802017Y-77042700D01*
X139802017Y-77042700D02*
X139768683Y-77176033D01*
X139768683Y-77176033D02*
X139702017Y-77242700D01*
X139702017Y-77242700D02*
X139635350Y-77276033D01*
X139635350Y-77276033D02*
X139502017Y-77276033D01*
X139502017Y-77276033D02*
X139435350Y-77242700D01*
X139435350Y-77242700D02*
X139368683Y-77176033D01*
X139368683Y-77176033D02*
X139335350Y-77042700D01*
X139335350Y-77042700D02*
X139335350Y-76809366D01*
X139335350Y-76809366D02*
X139368683Y-76676033D01*
X139368683Y-76676033D02*
X139435350Y-76609366D01*
X139435350Y-76609366D02*
X139502017Y-76576033D01*
X140035350Y-76576033D02*
X140468683Y-76576033D01*
X140468683Y-76576033D02*
X140235350Y-76842700D01*
X140235350Y-76842700D02*
X140335350Y-76842700D01*
X140335350Y-76842700D02*
X140402016Y-76876033D01*
X140402016Y-76876033D02*
X140435350Y-76909366D01*
X140435350Y-76909366D02*
X140468683Y-76976033D01*
X140468683Y-76976033D02*
X140468683Y-77142700D01*
X140468683Y-77142700D02*
X140435350Y-77209366D01*
X140435350Y-77209366D02*
X140402016Y-77242700D01*
X140402016Y-77242700D02*
X140335350Y-77276033D01*
X140335350Y-77276033D02*
X140135350Y-77276033D01*
X140135350Y-77276033D02*
X140068683Y-77242700D01*
X140068683Y-77242700D02*
X140035350Y-77209366D01*
X140735350Y-76642700D02*
X140768683Y-76609366D01*
X140768683Y-76609366D02*
X140835350Y-76576033D01*
X140835350Y-76576033D02*
X141002017Y-76576033D01*
X141002017Y-76576033D02*
X141068683Y-76609366D01*
X141068683Y-76609366D02*
X141102017Y-76642700D01*
X141102017Y-76642700D02*
X141135350Y-76709366D01*
X141135350Y-76709366D02*
X141135350Y-76776033D01*
X141135350Y-76776033D02*
X141102017Y-76876033D01*
X141102017Y-76876033D02*
X140702017Y-77276033D01*
X140702017Y-77276033D02*
X141135350Y-77276033D01*
X138002017Y-79149366D02*
X137935350Y-79116033D01*
X137935350Y-79116033D02*
X137835350Y-79116033D01*
X137835350Y-79116033D02*
X137735350Y-79149366D01*
X137735350Y-79149366D02*
X137668684Y-79216033D01*
X137668684Y-79216033D02*
X137635350Y-79282700D01*
X137635350Y-79282700D02*
X137602017Y-79416033D01*
X137602017Y-79416033D02*
X137602017Y-79516033D01*
X137602017Y-79516033D02*
X137635350Y-79649366D01*
X137635350Y-79649366D02*
X137668684Y-79716033D01*
X137668684Y-79716033D02*
X137735350Y-79782700D01*
X137735350Y-79782700D02*
X137835350Y-79816033D01*
X137835350Y-79816033D02*
X137902017Y-79816033D01*
X137902017Y-79816033D02*
X138002017Y-79782700D01*
X138002017Y-79782700D02*
X138035350Y-79749366D01*
X138035350Y-79749366D02*
X138035350Y-79516033D01*
X138035350Y-79516033D02*
X137902017Y-79516033D01*
X138335350Y-79816033D02*
X138335350Y-79116033D01*
X138335350Y-79116033D02*
X138602017Y-79116033D01*
X138602017Y-79116033D02*
X138668684Y-79149366D01*
X138668684Y-79149366D02*
X138702017Y-79182700D01*
X138702017Y-79182700D02*
X138735350Y-79249366D01*
X138735350Y-79249366D02*
X138735350Y-79349366D01*
X138735350Y-79349366D02*
X138702017Y-79416033D01*
X138702017Y-79416033D02*
X138668684Y-79449366D01*
X138668684Y-79449366D02*
X138602017Y-79482700D01*
X138602017Y-79482700D02*
X138335350Y-79482700D01*
X139035350Y-79816033D02*
X139035350Y-79116033D01*
X139502017Y-79116033D02*
X139635350Y-79116033D01*
X139635350Y-79116033D02*
X139702017Y-79149366D01*
X139702017Y-79149366D02*
X139768683Y-79216033D01*
X139768683Y-79216033D02*
X139802017Y-79349366D01*
X139802017Y-79349366D02*
X139802017Y-79582700D01*
X139802017Y-79582700D02*
X139768683Y-79716033D01*
X139768683Y-79716033D02*
X139702017Y-79782700D01*
X139702017Y-79782700D02*
X139635350Y-79816033D01*
X139635350Y-79816033D02*
X139502017Y-79816033D01*
X139502017Y-79816033D02*
X139435350Y-79782700D01*
X139435350Y-79782700D02*
X139368683Y-79716033D01*
X139368683Y-79716033D02*
X139335350Y-79582700D01*
X139335350Y-79582700D02*
X139335350Y-79349366D01*
X139335350Y-79349366D02*
X139368683Y-79216033D01*
X139368683Y-79216033D02*
X139435350Y-79149366D01*
X139435350Y-79149366D02*
X139502017Y-79116033D01*
X140035350Y-79116033D02*
X140468683Y-79116033D01*
X140468683Y-79116033D02*
X140235350Y-79382700D01*
X140235350Y-79382700D02*
X140335350Y-79382700D01*
X140335350Y-79382700D02*
X140402016Y-79416033D01*
X140402016Y-79416033D02*
X140435350Y-79449366D01*
X140435350Y-79449366D02*
X140468683Y-79516033D01*
X140468683Y-79516033D02*
X140468683Y-79682700D01*
X140468683Y-79682700D02*
X140435350Y-79749366D01*
X140435350Y-79749366D02*
X140402016Y-79782700D01*
X140402016Y-79782700D02*
X140335350Y-79816033D01*
X140335350Y-79816033D02*
X140135350Y-79816033D01*
X140135350Y-79816033D02*
X140068683Y-79782700D01*
X140068683Y-79782700D02*
X140035350Y-79749366D01*
X140702017Y-79116033D02*
X141135350Y-79116033D01*
X141135350Y-79116033D02*
X140902017Y-79382700D01*
X140902017Y-79382700D02*
X141002017Y-79382700D01*
X141002017Y-79382700D02*
X141068683Y-79416033D01*
X141068683Y-79416033D02*
X141102017Y-79449366D01*
X141102017Y-79449366D02*
X141135350Y-79516033D01*
X141135350Y-79516033D02*
X141135350Y-79682700D01*
X141135350Y-79682700D02*
X141102017Y-79749366D01*
X141102017Y-79749366D02*
X141068683Y-79782700D01*
X141068683Y-79782700D02*
X141002017Y-79816033D01*
X141002017Y-79816033D02*
X140802017Y-79816033D01*
X140802017Y-79816033D02*
X140735350Y-79782700D01*
X140735350Y-79782700D02*
X140702017Y-79749366D01*
X138002017Y-81689366D02*
X137935350Y-81656033D01*
X137935350Y-81656033D02*
X137835350Y-81656033D01*
X137835350Y-81656033D02*
X137735350Y-81689366D01*
X137735350Y-81689366D02*
X137668684Y-81756033D01*
X137668684Y-81756033D02*
X137635350Y-81822700D01*
X137635350Y-81822700D02*
X137602017Y-81956033D01*
X137602017Y-81956033D02*
X137602017Y-82056033D01*
X137602017Y-82056033D02*
X137635350Y-82189366D01*
X137635350Y-82189366D02*
X137668684Y-82256033D01*
X137668684Y-82256033D02*
X137735350Y-82322700D01*
X137735350Y-82322700D02*
X137835350Y-82356033D01*
X137835350Y-82356033D02*
X137902017Y-82356033D01*
X137902017Y-82356033D02*
X138002017Y-82322700D01*
X138002017Y-82322700D02*
X138035350Y-82289366D01*
X138035350Y-82289366D02*
X138035350Y-82056033D01*
X138035350Y-82056033D02*
X137902017Y-82056033D01*
X138335350Y-82356033D02*
X138335350Y-81656033D01*
X138335350Y-81656033D02*
X138602017Y-81656033D01*
X138602017Y-81656033D02*
X138668684Y-81689366D01*
X138668684Y-81689366D02*
X138702017Y-81722700D01*
X138702017Y-81722700D02*
X138735350Y-81789366D01*
X138735350Y-81789366D02*
X138735350Y-81889366D01*
X138735350Y-81889366D02*
X138702017Y-81956033D01*
X138702017Y-81956033D02*
X138668684Y-81989366D01*
X138668684Y-81989366D02*
X138602017Y-82022700D01*
X138602017Y-82022700D02*
X138335350Y-82022700D01*
X139035350Y-82356033D02*
X139035350Y-81656033D01*
X139502017Y-81656033D02*
X139635350Y-81656033D01*
X139635350Y-81656033D02*
X139702017Y-81689366D01*
X139702017Y-81689366D02*
X139768683Y-81756033D01*
X139768683Y-81756033D02*
X139802017Y-81889366D01*
X139802017Y-81889366D02*
X139802017Y-82122700D01*
X139802017Y-82122700D02*
X139768683Y-82256033D01*
X139768683Y-82256033D02*
X139702017Y-82322700D01*
X139702017Y-82322700D02*
X139635350Y-82356033D01*
X139635350Y-82356033D02*
X139502017Y-82356033D01*
X139502017Y-82356033D02*
X139435350Y-82322700D01*
X139435350Y-82322700D02*
X139368683Y-82256033D01*
X139368683Y-82256033D02*
X139335350Y-82122700D01*
X139335350Y-82122700D02*
X139335350Y-81889366D01*
X139335350Y-81889366D02*
X139368683Y-81756033D01*
X139368683Y-81756033D02*
X139435350Y-81689366D01*
X139435350Y-81689366D02*
X139502017Y-81656033D01*
X140068683Y-81722700D02*
X140102016Y-81689366D01*
X140102016Y-81689366D02*
X140168683Y-81656033D01*
X140168683Y-81656033D02*
X140335350Y-81656033D01*
X140335350Y-81656033D02*
X140402016Y-81689366D01*
X140402016Y-81689366D02*
X140435350Y-81722700D01*
X140435350Y-81722700D02*
X140468683Y-81789366D01*
X140468683Y-81789366D02*
X140468683Y-81856033D01*
X140468683Y-81856033D02*
X140435350Y-81956033D01*
X140435350Y-81956033D02*
X140035350Y-82356033D01*
X140035350Y-82356033D02*
X140468683Y-82356033D01*
X141102017Y-81656033D02*
X140768683Y-81656033D01*
X140768683Y-81656033D02*
X140735350Y-81989366D01*
X140735350Y-81989366D02*
X140768683Y-81956033D01*
X140768683Y-81956033D02*
X140835350Y-81922700D01*
X140835350Y-81922700D02*
X141002017Y-81922700D01*
X141002017Y-81922700D02*
X141068683Y-81956033D01*
X141068683Y-81956033D02*
X141102017Y-81989366D01*
X141102017Y-81989366D02*
X141135350Y-82056033D01*
X141135350Y-82056033D02*
X141135350Y-82222700D01*
X141135350Y-82222700D02*
X141102017Y-82289366D01*
X141102017Y-82289366D02*
X141068683Y-82322700D01*
X141068683Y-82322700D02*
X141002017Y-82356033D01*
X141002017Y-82356033D02*
X140835350Y-82356033D01*
X140835350Y-82356033D02*
X140768683Y-82322700D01*
X140768683Y-82322700D02*
X140735350Y-82289366D01*
X138002017Y-84229366D02*
X137935350Y-84196033D01*
X137935350Y-84196033D02*
X137835350Y-84196033D01*
X137835350Y-84196033D02*
X137735350Y-84229366D01*
X137735350Y-84229366D02*
X137668684Y-84296033D01*
X137668684Y-84296033D02*
X137635350Y-84362700D01*
X137635350Y-84362700D02*
X137602017Y-84496033D01*
X137602017Y-84496033D02*
X137602017Y-84596033D01*
X137602017Y-84596033D02*
X137635350Y-84729366D01*
X137635350Y-84729366D02*
X137668684Y-84796033D01*
X137668684Y-84796033D02*
X137735350Y-84862700D01*
X137735350Y-84862700D02*
X137835350Y-84896033D01*
X137835350Y-84896033D02*
X137902017Y-84896033D01*
X137902017Y-84896033D02*
X138002017Y-84862700D01*
X138002017Y-84862700D02*
X138035350Y-84829366D01*
X138035350Y-84829366D02*
X138035350Y-84596033D01*
X138035350Y-84596033D02*
X137902017Y-84596033D01*
X138335350Y-84896033D02*
X138335350Y-84196033D01*
X138335350Y-84196033D02*
X138602017Y-84196033D01*
X138602017Y-84196033D02*
X138668684Y-84229366D01*
X138668684Y-84229366D02*
X138702017Y-84262700D01*
X138702017Y-84262700D02*
X138735350Y-84329366D01*
X138735350Y-84329366D02*
X138735350Y-84429366D01*
X138735350Y-84429366D02*
X138702017Y-84496033D01*
X138702017Y-84496033D02*
X138668684Y-84529366D01*
X138668684Y-84529366D02*
X138602017Y-84562700D01*
X138602017Y-84562700D02*
X138335350Y-84562700D01*
X139035350Y-84896033D02*
X139035350Y-84196033D01*
X139502017Y-84196033D02*
X139635350Y-84196033D01*
X139635350Y-84196033D02*
X139702017Y-84229366D01*
X139702017Y-84229366D02*
X139768683Y-84296033D01*
X139768683Y-84296033D02*
X139802017Y-84429366D01*
X139802017Y-84429366D02*
X139802017Y-84662700D01*
X139802017Y-84662700D02*
X139768683Y-84796033D01*
X139768683Y-84796033D02*
X139702017Y-84862700D01*
X139702017Y-84862700D02*
X139635350Y-84896033D01*
X139635350Y-84896033D02*
X139502017Y-84896033D01*
X139502017Y-84896033D02*
X139435350Y-84862700D01*
X139435350Y-84862700D02*
X139368683Y-84796033D01*
X139368683Y-84796033D02*
X139335350Y-84662700D01*
X139335350Y-84662700D02*
X139335350Y-84429366D01*
X139335350Y-84429366D02*
X139368683Y-84296033D01*
X139368683Y-84296033D02*
X139435350Y-84229366D01*
X139435350Y-84229366D02*
X139502017Y-84196033D01*
X140068683Y-84262700D02*
X140102016Y-84229366D01*
X140102016Y-84229366D02*
X140168683Y-84196033D01*
X140168683Y-84196033D02*
X140335350Y-84196033D01*
X140335350Y-84196033D02*
X140402016Y-84229366D01*
X140402016Y-84229366D02*
X140435350Y-84262700D01*
X140435350Y-84262700D02*
X140468683Y-84329366D01*
X140468683Y-84329366D02*
X140468683Y-84396033D01*
X140468683Y-84396033D02*
X140435350Y-84496033D01*
X140435350Y-84496033D02*
X140035350Y-84896033D01*
X140035350Y-84896033D02*
X140468683Y-84896033D01*
X141068683Y-84196033D02*
X140935350Y-84196033D01*
X140935350Y-84196033D02*
X140868683Y-84229366D01*
X140868683Y-84229366D02*
X140835350Y-84262700D01*
X140835350Y-84262700D02*
X140768683Y-84362700D01*
X140768683Y-84362700D02*
X140735350Y-84496033D01*
X140735350Y-84496033D02*
X140735350Y-84762700D01*
X140735350Y-84762700D02*
X140768683Y-84829366D01*
X140768683Y-84829366D02*
X140802017Y-84862700D01*
X140802017Y-84862700D02*
X140868683Y-84896033D01*
X140868683Y-84896033D02*
X141002017Y-84896033D01*
X141002017Y-84896033D02*
X141068683Y-84862700D01*
X141068683Y-84862700D02*
X141102017Y-84829366D01*
X141102017Y-84829366D02*
X141135350Y-84762700D01*
X141135350Y-84762700D02*
X141135350Y-84596033D01*
X141135350Y-84596033D02*
X141102017Y-84529366D01*
X141102017Y-84529366D02*
X141068683Y-84496033D01*
X141068683Y-84496033D02*
X141002017Y-84462700D01*
X141002017Y-84462700D02*
X140868683Y-84462700D01*
X140868683Y-84462700D02*
X140802017Y-84496033D01*
X140802017Y-84496033D02*
X140768683Y-84529366D01*
X140768683Y-84529366D02*
X140735350Y-84596033D01*
X138002017Y-86769366D02*
X137935350Y-86736033D01*
X137935350Y-86736033D02*
X137835350Y-86736033D01*
X137835350Y-86736033D02*
X137735350Y-86769366D01*
X137735350Y-86769366D02*
X137668684Y-86836033D01*
X137668684Y-86836033D02*
X137635350Y-86902700D01*
X137635350Y-86902700D02*
X137602017Y-87036033D01*
X137602017Y-87036033D02*
X137602017Y-87136033D01*
X137602017Y-87136033D02*
X137635350Y-87269366D01*
X137635350Y-87269366D02*
X137668684Y-87336033D01*
X137668684Y-87336033D02*
X137735350Y-87402700D01*
X137735350Y-87402700D02*
X137835350Y-87436033D01*
X137835350Y-87436033D02*
X137902017Y-87436033D01*
X137902017Y-87436033D02*
X138002017Y-87402700D01*
X138002017Y-87402700D02*
X138035350Y-87369366D01*
X138035350Y-87369366D02*
X138035350Y-87136033D01*
X138035350Y-87136033D02*
X137902017Y-87136033D01*
X138335350Y-87436033D02*
X138335350Y-86736033D01*
X138335350Y-86736033D02*
X138602017Y-86736033D01*
X138602017Y-86736033D02*
X138668684Y-86769366D01*
X138668684Y-86769366D02*
X138702017Y-86802700D01*
X138702017Y-86802700D02*
X138735350Y-86869366D01*
X138735350Y-86869366D02*
X138735350Y-86969366D01*
X138735350Y-86969366D02*
X138702017Y-87036033D01*
X138702017Y-87036033D02*
X138668684Y-87069366D01*
X138668684Y-87069366D02*
X138602017Y-87102700D01*
X138602017Y-87102700D02*
X138335350Y-87102700D01*
X139035350Y-87436033D02*
X139035350Y-86736033D01*
X139502017Y-86736033D02*
X139635350Y-86736033D01*
X139635350Y-86736033D02*
X139702017Y-86769366D01*
X139702017Y-86769366D02*
X139768683Y-86836033D01*
X139768683Y-86836033D02*
X139802017Y-86969366D01*
X139802017Y-86969366D02*
X139802017Y-87202700D01*
X139802017Y-87202700D02*
X139768683Y-87336033D01*
X139768683Y-87336033D02*
X139702017Y-87402700D01*
X139702017Y-87402700D02*
X139635350Y-87436033D01*
X139635350Y-87436033D02*
X139502017Y-87436033D01*
X139502017Y-87436033D02*
X139435350Y-87402700D01*
X139435350Y-87402700D02*
X139368683Y-87336033D01*
X139368683Y-87336033D02*
X139335350Y-87202700D01*
X139335350Y-87202700D02*
X139335350Y-86969366D01*
X139335350Y-86969366D02*
X139368683Y-86836033D01*
X139368683Y-86836033D02*
X139435350Y-86769366D01*
X139435350Y-86769366D02*
X139502017Y-86736033D01*
X140068683Y-86802700D02*
X140102016Y-86769366D01*
X140102016Y-86769366D02*
X140168683Y-86736033D01*
X140168683Y-86736033D02*
X140335350Y-86736033D01*
X140335350Y-86736033D02*
X140402016Y-86769366D01*
X140402016Y-86769366D02*
X140435350Y-86802700D01*
X140435350Y-86802700D02*
X140468683Y-86869366D01*
X140468683Y-86869366D02*
X140468683Y-86936033D01*
X140468683Y-86936033D02*
X140435350Y-87036033D01*
X140435350Y-87036033D02*
X140035350Y-87436033D01*
X140035350Y-87436033D02*
X140468683Y-87436033D01*
X140702017Y-86736033D02*
X141168683Y-86736033D01*
X141168683Y-86736033D02*
X140868683Y-87436033D01*
X138002017Y-89309366D02*
X137935350Y-89276033D01*
X137935350Y-89276033D02*
X137835350Y-89276033D01*
X137835350Y-89276033D02*
X137735350Y-89309366D01*
X137735350Y-89309366D02*
X137668684Y-89376033D01*
X137668684Y-89376033D02*
X137635350Y-89442700D01*
X137635350Y-89442700D02*
X137602017Y-89576033D01*
X137602017Y-89576033D02*
X137602017Y-89676033D01*
X137602017Y-89676033D02*
X137635350Y-89809366D01*
X137635350Y-89809366D02*
X137668684Y-89876033D01*
X137668684Y-89876033D02*
X137735350Y-89942700D01*
X137735350Y-89942700D02*
X137835350Y-89976033D01*
X137835350Y-89976033D02*
X137902017Y-89976033D01*
X137902017Y-89976033D02*
X138002017Y-89942700D01*
X138002017Y-89942700D02*
X138035350Y-89909366D01*
X138035350Y-89909366D02*
X138035350Y-89676033D01*
X138035350Y-89676033D02*
X137902017Y-89676033D01*
X138335350Y-89976033D02*
X138335350Y-89276033D01*
X138335350Y-89276033D02*
X138602017Y-89276033D01*
X138602017Y-89276033D02*
X138668684Y-89309366D01*
X138668684Y-89309366D02*
X138702017Y-89342700D01*
X138702017Y-89342700D02*
X138735350Y-89409366D01*
X138735350Y-89409366D02*
X138735350Y-89509366D01*
X138735350Y-89509366D02*
X138702017Y-89576033D01*
X138702017Y-89576033D02*
X138668684Y-89609366D01*
X138668684Y-89609366D02*
X138602017Y-89642700D01*
X138602017Y-89642700D02*
X138335350Y-89642700D01*
X139035350Y-89976033D02*
X139035350Y-89276033D01*
X139502017Y-89276033D02*
X139635350Y-89276033D01*
X139635350Y-89276033D02*
X139702017Y-89309366D01*
X139702017Y-89309366D02*
X139768683Y-89376033D01*
X139768683Y-89376033D02*
X139802017Y-89509366D01*
X139802017Y-89509366D02*
X139802017Y-89742700D01*
X139802017Y-89742700D02*
X139768683Y-89876033D01*
X139768683Y-89876033D02*
X139702017Y-89942700D01*
X139702017Y-89942700D02*
X139635350Y-89976033D01*
X139635350Y-89976033D02*
X139502017Y-89976033D01*
X139502017Y-89976033D02*
X139435350Y-89942700D01*
X139435350Y-89942700D02*
X139368683Y-89876033D01*
X139368683Y-89876033D02*
X139335350Y-89742700D01*
X139335350Y-89742700D02*
X139335350Y-89509366D01*
X139335350Y-89509366D02*
X139368683Y-89376033D01*
X139368683Y-89376033D02*
X139435350Y-89309366D01*
X139435350Y-89309366D02*
X139502017Y-89276033D01*
X140468683Y-89976033D02*
X140068683Y-89976033D01*
X140268683Y-89976033D02*
X140268683Y-89276033D01*
X140268683Y-89276033D02*
X140202016Y-89376033D01*
X140202016Y-89376033D02*
X140135350Y-89442700D01*
X140135350Y-89442700D02*
X140068683Y-89476033D01*
X141068683Y-89509366D02*
X141068683Y-89976033D01*
X140902017Y-89242700D02*
X140735350Y-89742700D01*
X140735350Y-89742700D02*
X141168683Y-89742700D01*
X141935350Y-89242700D02*
X141335350Y-90142700D01*
X142168683Y-89976033D02*
X142168683Y-89276033D01*
X142168683Y-89276033D02*
X142402017Y-89776033D01*
X142402017Y-89776033D02*
X142635350Y-89276033D01*
X142635350Y-89276033D02*
X142635350Y-89976033D01*
X142868683Y-89276033D02*
X143268683Y-89276033D01*
X143068683Y-89976033D02*
X143068683Y-89276033D01*
X143502016Y-89976033D02*
X143502016Y-89276033D01*
X143502016Y-89276033D02*
X143735350Y-89776033D01*
X143735350Y-89776033D02*
X143968683Y-89276033D01*
X143968683Y-89276033D02*
X143968683Y-89976033D01*
X144268683Y-89942700D02*
X144368683Y-89976033D01*
X144368683Y-89976033D02*
X144535350Y-89976033D01*
X144535350Y-89976033D02*
X144602016Y-89942700D01*
X144602016Y-89942700D02*
X144635350Y-89909366D01*
X144635350Y-89909366D02*
X144668683Y-89842700D01*
X144668683Y-89842700D02*
X144668683Y-89776033D01*
X144668683Y-89776033D02*
X144635350Y-89709366D01*
X144635350Y-89709366D02*
X144602016Y-89676033D01*
X144602016Y-89676033D02*
X144535350Y-89642700D01*
X144535350Y-89642700D02*
X144402016Y-89609366D01*
X144402016Y-89609366D02*
X144335350Y-89576033D01*
X144335350Y-89576033D02*
X144302016Y-89542700D01*
X144302016Y-89542700D02*
X144268683Y-89476033D01*
X144268683Y-89476033D02*
X144268683Y-89409366D01*
X144268683Y-89409366D02*
X144302016Y-89342700D01*
X144302016Y-89342700D02*
X144335350Y-89309366D01*
X144335350Y-89309366D02*
X144402016Y-89276033D01*
X144402016Y-89276033D02*
X144568683Y-89276033D01*
X144568683Y-89276033D02*
X144668683Y-89309366D01*
X138002017Y-91849366D02*
X137935350Y-91816033D01*
X137935350Y-91816033D02*
X137835350Y-91816033D01*
X137835350Y-91816033D02*
X137735350Y-91849366D01*
X137735350Y-91849366D02*
X137668684Y-91916033D01*
X137668684Y-91916033D02*
X137635350Y-91982700D01*
X137635350Y-91982700D02*
X137602017Y-92116033D01*
X137602017Y-92116033D02*
X137602017Y-92216033D01*
X137602017Y-92216033D02*
X137635350Y-92349366D01*
X137635350Y-92349366D02*
X137668684Y-92416033D01*
X137668684Y-92416033D02*
X137735350Y-92482700D01*
X137735350Y-92482700D02*
X137835350Y-92516033D01*
X137835350Y-92516033D02*
X137902017Y-92516033D01*
X137902017Y-92516033D02*
X138002017Y-92482700D01*
X138002017Y-92482700D02*
X138035350Y-92449366D01*
X138035350Y-92449366D02*
X138035350Y-92216033D01*
X138035350Y-92216033D02*
X137902017Y-92216033D01*
X138335350Y-92516033D02*
X138335350Y-91816033D01*
X138335350Y-91816033D02*
X138602017Y-91816033D01*
X138602017Y-91816033D02*
X138668684Y-91849366D01*
X138668684Y-91849366D02*
X138702017Y-91882700D01*
X138702017Y-91882700D02*
X138735350Y-91949366D01*
X138735350Y-91949366D02*
X138735350Y-92049366D01*
X138735350Y-92049366D02*
X138702017Y-92116033D01*
X138702017Y-92116033D02*
X138668684Y-92149366D01*
X138668684Y-92149366D02*
X138602017Y-92182700D01*
X138602017Y-92182700D02*
X138335350Y-92182700D01*
X139035350Y-92516033D02*
X139035350Y-91816033D01*
X139502017Y-91816033D02*
X139635350Y-91816033D01*
X139635350Y-91816033D02*
X139702017Y-91849366D01*
X139702017Y-91849366D02*
X139768683Y-91916033D01*
X139768683Y-91916033D02*
X139802017Y-92049366D01*
X139802017Y-92049366D02*
X139802017Y-92282700D01*
X139802017Y-92282700D02*
X139768683Y-92416033D01*
X139768683Y-92416033D02*
X139702017Y-92482700D01*
X139702017Y-92482700D02*
X139635350Y-92516033D01*
X139635350Y-92516033D02*
X139502017Y-92516033D01*
X139502017Y-92516033D02*
X139435350Y-92482700D01*
X139435350Y-92482700D02*
X139368683Y-92416033D01*
X139368683Y-92416033D02*
X139335350Y-92282700D01*
X139335350Y-92282700D02*
X139335350Y-92049366D01*
X139335350Y-92049366D02*
X139368683Y-91916033D01*
X139368683Y-91916033D02*
X139435350Y-91849366D01*
X139435350Y-91849366D02*
X139502017Y-91816033D01*
X140468683Y-92516033D02*
X140068683Y-92516033D01*
X140268683Y-92516033D02*
X140268683Y-91816033D01*
X140268683Y-91816033D02*
X140202016Y-91916033D01*
X140202016Y-91916033D02*
X140135350Y-91982700D01*
X140135350Y-91982700D02*
X140068683Y-92016033D01*
X140735350Y-91882700D02*
X140768683Y-91849366D01*
X140768683Y-91849366D02*
X140835350Y-91816033D01*
X140835350Y-91816033D02*
X141002017Y-91816033D01*
X141002017Y-91816033D02*
X141068683Y-91849366D01*
X141068683Y-91849366D02*
X141102017Y-91882700D01*
X141102017Y-91882700D02*
X141135350Y-91949366D01*
X141135350Y-91949366D02*
X141135350Y-92016033D01*
X141135350Y-92016033D02*
X141102017Y-92116033D01*
X141102017Y-92116033D02*
X140702017Y-92516033D01*
X140702017Y-92516033D02*
X141135350Y-92516033D01*
X141935350Y-91782700D02*
X141335350Y-92682700D01*
X142168683Y-92516033D02*
X142168683Y-91816033D01*
X142168683Y-91816033D02*
X142402017Y-92316033D01*
X142402017Y-92316033D02*
X142635350Y-91816033D01*
X142635350Y-91816033D02*
X142635350Y-92516033D01*
X142868683Y-91816033D02*
X143268683Y-91816033D01*
X143068683Y-92516033D02*
X143068683Y-91816033D01*
X143502016Y-92516033D02*
X143502016Y-91816033D01*
X143502016Y-91816033D02*
X143668683Y-91816033D01*
X143668683Y-91816033D02*
X143768683Y-91849366D01*
X143768683Y-91849366D02*
X143835350Y-91916033D01*
X143835350Y-91916033D02*
X143868683Y-91982700D01*
X143868683Y-91982700D02*
X143902016Y-92116033D01*
X143902016Y-92116033D02*
X143902016Y-92216033D01*
X143902016Y-92216033D02*
X143868683Y-92349366D01*
X143868683Y-92349366D02*
X143835350Y-92416033D01*
X143835350Y-92416033D02*
X143768683Y-92482700D01*
X143768683Y-92482700D02*
X143668683Y-92516033D01*
X143668683Y-92516033D02*
X143502016Y-92516033D01*
X144202016Y-92516033D02*
X144202016Y-91816033D01*
X138230588Y-94242438D02*
X138135350Y-94194819D01*
X138135350Y-94194819D02*
X137992493Y-94194819D01*
X137992493Y-94194819D02*
X137849636Y-94242438D01*
X137849636Y-94242438D02*
X137754398Y-94337676D01*
X137754398Y-94337676D02*
X137706779Y-94432914D01*
X137706779Y-94432914D02*
X137659160Y-94623390D01*
X137659160Y-94623390D02*
X137659160Y-94766247D01*
X137659160Y-94766247D02*
X137706779Y-94956723D01*
X137706779Y-94956723D02*
X137754398Y-95051961D01*
X137754398Y-95051961D02*
X137849636Y-95147200D01*
X137849636Y-95147200D02*
X137992493Y-95194819D01*
X137992493Y-95194819D02*
X138087731Y-95194819D01*
X138087731Y-95194819D02*
X138230588Y-95147200D01*
X138230588Y-95147200D02*
X138278207Y-95099580D01*
X138278207Y-95099580D02*
X138278207Y-94766247D01*
X138278207Y-94766247D02*
X138087731Y-94766247D01*
X138706779Y-95194819D02*
X138706779Y-94194819D01*
X138706779Y-94194819D02*
X139278207Y-95194819D01*
X139278207Y-95194819D02*
X139278207Y-94194819D01*
X139754398Y-95194819D02*
X139754398Y-94194819D01*
X139754398Y-94194819D02*
X139992493Y-94194819D01*
X139992493Y-94194819D02*
X140135350Y-94242438D01*
X140135350Y-94242438D02*
X140230588Y-94337676D01*
X140230588Y-94337676D02*
X140278207Y-94432914D01*
X140278207Y-94432914D02*
X140325826Y-94623390D01*
X140325826Y-94623390D02*
X140325826Y-94766247D01*
X140325826Y-94766247D02*
X140278207Y-94956723D01*
X140278207Y-94956723D02*
X140230588Y-95051961D01*
X140230588Y-95051961D02*
X140135350Y-95147200D01*
X140135350Y-95147200D02*
X139992493Y-95194819D01*
X139992493Y-95194819D02*
X139754398Y-95194819D01*
X138002017Y-96929366D02*
X137935350Y-96896033D01*
X137935350Y-96896033D02*
X137835350Y-96896033D01*
X137835350Y-96896033D02*
X137735350Y-96929366D01*
X137735350Y-96929366D02*
X137668684Y-96996033D01*
X137668684Y-96996033D02*
X137635350Y-97062700D01*
X137635350Y-97062700D02*
X137602017Y-97196033D01*
X137602017Y-97196033D02*
X137602017Y-97296033D01*
X137602017Y-97296033D02*
X137635350Y-97429366D01*
X137635350Y-97429366D02*
X137668684Y-97496033D01*
X137668684Y-97496033D02*
X137735350Y-97562700D01*
X137735350Y-97562700D02*
X137835350Y-97596033D01*
X137835350Y-97596033D02*
X137902017Y-97596033D01*
X137902017Y-97596033D02*
X138002017Y-97562700D01*
X138002017Y-97562700D02*
X138035350Y-97529366D01*
X138035350Y-97529366D02*
X138035350Y-97296033D01*
X138035350Y-97296033D02*
X137902017Y-97296033D01*
X138335350Y-97596033D02*
X138335350Y-96896033D01*
X138335350Y-96896033D02*
X138602017Y-96896033D01*
X138602017Y-96896033D02*
X138668684Y-96929366D01*
X138668684Y-96929366D02*
X138702017Y-96962700D01*
X138702017Y-96962700D02*
X138735350Y-97029366D01*
X138735350Y-97029366D02*
X138735350Y-97129366D01*
X138735350Y-97129366D02*
X138702017Y-97196033D01*
X138702017Y-97196033D02*
X138668684Y-97229366D01*
X138668684Y-97229366D02*
X138602017Y-97262700D01*
X138602017Y-97262700D02*
X138335350Y-97262700D01*
X139035350Y-97596033D02*
X139035350Y-96896033D01*
X139502017Y-96896033D02*
X139635350Y-96896033D01*
X139635350Y-96896033D02*
X139702017Y-96929366D01*
X139702017Y-96929366D02*
X139768683Y-96996033D01*
X139768683Y-96996033D02*
X139802017Y-97129366D01*
X139802017Y-97129366D02*
X139802017Y-97362700D01*
X139802017Y-97362700D02*
X139768683Y-97496033D01*
X139768683Y-97496033D02*
X139702017Y-97562700D01*
X139702017Y-97562700D02*
X139635350Y-97596033D01*
X139635350Y-97596033D02*
X139502017Y-97596033D01*
X139502017Y-97596033D02*
X139435350Y-97562700D01*
X139435350Y-97562700D02*
X139368683Y-97496033D01*
X139368683Y-97496033D02*
X139335350Y-97362700D01*
X139335350Y-97362700D02*
X139335350Y-97129366D01*
X139335350Y-97129366D02*
X139368683Y-96996033D01*
X139368683Y-96996033D02*
X139435350Y-96929366D01*
X139435350Y-96929366D02*
X139502017Y-96896033D01*
X140468683Y-97596033D02*
X140068683Y-97596033D01*
X140268683Y-97596033D02*
X140268683Y-96896033D01*
X140268683Y-96896033D02*
X140202016Y-96996033D01*
X140202016Y-96996033D02*
X140135350Y-97062700D01*
X140135350Y-97062700D02*
X140068683Y-97096033D01*
X140702017Y-96896033D02*
X141135350Y-96896033D01*
X141135350Y-96896033D02*
X140902017Y-97162700D01*
X140902017Y-97162700D02*
X141002017Y-97162700D01*
X141002017Y-97162700D02*
X141068683Y-97196033D01*
X141068683Y-97196033D02*
X141102017Y-97229366D01*
X141102017Y-97229366D02*
X141135350Y-97296033D01*
X141135350Y-97296033D02*
X141135350Y-97462700D01*
X141135350Y-97462700D02*
X141102017Y-97529366D01*
X141102017Y-97529366D02*
X141068683Y-97562700D01*
X141068683Y-97562700D02*
X141002017Y-97596033D01*
X141002017Y-97596033D02*
X140802017Y-97596033D01*
X140802017Y-97596033D02*
X140735350Y-97562700D01*
X140735350Y-97562700D02*
X140702017Y-97529366D01*
X141935350Y-96862700D02*
X141335350Y-97762700D01*
X142168683Y-97596033D02*
X142168683Y-96896033D01*
X142168683Y-96896033D02*
X142402017Y-97396033D01*
X142402017Y-97396033D02*
X142635350Y-96896033D01*
X142635350Y-96896033D02*
X142635350Y-97596033D01*
X142868683Y-96896033D02*
X143268683Y-96896033D01*
X143068683Y-97596033D02*
X143068683Y-96896033D01*
X143902016Y-97529366D02*
X143868683Y-97562700D01*
X143868683Y-97562700D02*
X143768683Y-97596033D01*
X143768683Y-97596033D02*
X143702016Y-97596033D01*
X143702016Y-97596033D02*
X143602016Y-97562700D01*
X143602016Y-97562700D02*
X143535350Y-97496033D01*
X143535350Y-97496033D02*
X143502016Y-97429366D01*
X143502016Y-97429366D02*
X143468683Y-97296033D01*
X143468683Y-97296033D02*
X143468683Y-97196033D01*
X143468683Y-97196033D02*
X143502016Y-97062700D01*
X143502016Y-97062700D02*
X143535350Y-96996033D01*
X143535350Y-96996033D02*
X143602016Y-96929366D01*
X143602016Y-96929366D02*
X143702016Y-96896033D01*
X143702016Y-96896033D02*
X143768683Y-96896033D01*
X143768683Y-96896033D02*
X143868683Y-96929366D01*
X143868683Y-96929366D02*
X143902016Y-96962700D01*
X144202016Y-97596033D02*
X144202016Y-96896033D01*
X144602016Y-97596033D02*
X144302016Y-97196033D01*
X144602016Y-96896033D02*
X144202016Y-97296033D01*
X137635350Y-100136033D02*
X137635350Y-99436033D01*
X137635350Y-99436033D02*
X137802017Y-99436033D01*
X137802017Y-99436033D02*
X137902017Y-99469366D01*
X137902017Y-99469366D02*
X137968684Y-99536033D01*
X137968684Y-99536033D02*
X138002017Y-99602700D01*
X138002017Y-99602700D02*
X138035350Y-99736033D01*
X138035350Y-99736033D02*
X138035350Y-99836033D01*
X138035350Y-99836033D02*
X138002017Y-99969366D01*
X138002017Y-99969366D02*
X137968684Y-100036033D01*
X137968684Y-100036033D02*
X137902017Y-100102700D01*
X137902017Y-100102700D02*
X137802017Y-100136033D01*
X137802017Y-100136033D02*
X137635350Y-100136033D01*
X138302017Y-99502700D02*
X138335350Y-99469366D01*
X138335350Y-99469366D02*
X138402017Y-99436033D01*
X138402017Y-99436033D02*
X138568684Y-99436033D01*
X138568684Y-99436033D02*
X138635350Y-99469366D01*
X138635350Y-99469366D02*
X138668684Y-99502700D01*
X138668684Y-99502700D02*
X138702017Y-99569366D01*
X138702017Y-99569366D02*
X138702017Y-99636033D01*
X138702017Y-99636033D02*
X138668684Y-99736033D01*
X138668684Y-99736033D02*
X138268684Y-100136033D01*
X138268684Y-100136033D02*
X138702017Y-100136033D01*
X137635350Y-102676033D02*
X137635350Y-101976033D01*
X137635350Y-101976033D02*
X137802017Y-101976033D01*
X137802017Y-101976033D02*
X137902017Y-102009366D01*
X137902017Y-102009366D02*
X137968684Y-102076033D01*
X137968684Y-102076033D02*
X138002017Y-102142700D01*
X138002017Y-102142700D02*
X138035350Y-102276033D01*
X138035350Y-102276033D02*
X138035350Y-102376033D01*
X138035350Y-102376033D02*
X138002017Y-102509366D01*
X138002017Y-102509366D02*
X137968684Y-102576033D01*
X137968684Y-102576033D02*
X137902017Y-102642700D01*
X137902017Y-102642700D02*
X137802017Y-102676033D01*
X137802017Y-102676033D02*
X137635350Y-102676033D01*
X138268684Y-101976033D02*
X138702017Y-101976033D01*
X138702017Y-101976033D02*
X138468684Y-102242700D01*
X138468684Y-102242700D02*
X138568684Y-102242700D01*
X138568684Y-102242700D02*
X138635350Y-102276033D01*
X138635350Y-102276033D02*
X138668684Y-102309366D01*
X138668684Y-102309366D02*
X138702017Y-102376033D01*
X138702017Y-102376033D02*
X138702017Y-102542700D01*
X138702017Y-102542700D02*
X138668684Y-102609366D01*
X138668684Y-102609366D02*
X138635350Y-102642700D01*
X138635350Y-102642700D02*
X138568684Y-102676033D01*
X138568684Y-102676033D02*
X138368684Y-102676033D01*
X138368684Y-102676033D02*
X138302017Y-102642700D01*
X138302017Y-102642700D02*
X138268684Y-102609366D01*
X138035350Y-105149366D02*
X138002017Y-105182700D01*
X138002017Y-105182700D02*
X137902017Y-105216033D01*
X137902017Y-105216033D02*
X137835350Y-105216033D01*
X137835350Y-105216033D02*
X137735350Y-105182700D01*
X137735350Y-105182700D02*
X137668684Y-105116033D01*
X137668684Y-105116033D02*
X137635350Y-105049366D01*
X137635350Y-105049366D02*
X137602017Y-104916033D01*
X137602017Y-104916033D02*
X137602017Y-104816033D01*
X137602017Y-104816033D02*
X137635350Y-104682700D01*
X137635350Y-104682700D02*
X137668684Y-104616033D01*
X137668684Y-104616033D02*
X137735350Y-104549366D01*
X137735350Y-104549366D02*
X137835350Y-104516033D01*
X137835350Y-104516033D02*
X137902017Y-104516033D01*
X137902017Y-104516033D02*
X138002017Y-104549366D01*
X138002017Y-104549366D02*
X138035350Y-104582700D01*
X138335350Y-105216033D02*
X138335350Y-104516033D01*
X138335350Y-104516033D02*
X138568684Y-105016033D01*
X138568684Y-105016033D02*
X138802017Y-104516033D01*
X138802017Y-104516033D02*
X138802017Y-105216033D01*
X139135350Y-105216033D02*
X139135350Y-104516033D01*
X139135350Y-104516033D02*
X139302017Y-104516033D01*
X139302017Y-104516033D02*
X139402017Y-104549366D01*
X139402017Y-104549366D02*
X139468684Y-104616033D01*
X139468684Y-104616033D02*
X139502017Y-104682700D01*
X139502017Y-104682700D02*
X139535350Y-104816033D01*
X139535350Y-104816033D02*
X139535350Y-104916033D01*
X139535350Y-104916033D02*
X139502017Y-105049366D01*
X139502017Y-105049366D02*
X139468684Y-105116033D01*
X139468684Y-105116033D02*
X139402017Y-105182700D01*
X139402017Y-105182700D02*
X139302017Y-105216033D01*
X139302017Y-105216033D02*
X139135350Y-105216033D01*
X137601921Y-64188289D02*
X137935254Y-64188289D01*
X138078111Y-64712099D02*
X137601921Y-64712099D01*
X137601921Y-64712099D02*
X137601921Y-63712099D01*
X137601921Y-63712099D02*
X138078111Y-63712099D01*
X138506683Y-64712099D02*
X138506683Y-63712099D01*
X138506683Y-63712099D02*
X139078111Y-64712099D01*
X139078111Y-64712099D02*
X139078111Y-63712099D01*
X140268587Y-63664480D02*
X139411445Y-64950194D01*
X141173349Y-64712099D02*
X140840016Y-64235908D01*
X140601921Y-64712099D02*
X140601921Y-63712099D01*
X140601921Y-63712099D02*
X140982873Y-63712099D01*
X140982873Y-63712099D02*
X141078111Y-63759718D01*
X141078111Y-63759718D02*
X141125730Y-63807337D01*
X141125730Y-63807337D02*
X141173349Y-63902575D01*
X141173349Y-63902575D02*
X141173349Y-64045432D01*
X141173349Y-64045432D02*
X141125730Y-64140670D01*
X141125730Y-64140670D02*
X141078111Y-64188289D01*
X141078111Y-64188289D02*
X140982873Y-64235908D01*
X140982873Y-64235908D02*
X140601921Y-64235908D01*
X141601921Y-64188289D02*
X141935254Y-64188289D01*
X142078111Y-64712099D02*
X141601921Y-64712099D01*
X141601921Y-64712099D02*
X141601921Y-63712099D01*
X141601921Y-63712099D02*
X142078111Y-63712099D01*
X142459064Y-64664480D02*
X142601921Y-64712099D01*
X142601921Y-64712099D02*
X142840016Y-64712099D01*
X142840016Y-64712099D02*
X142935254Y-64664480D01*
X142935254Y-64664480D02*
X142982873Y-64616860D01*
X142982873Y-64616860D02*
X143030492Y-64521622D01*
X143030492Y-64521622D02*
X143030492Y-64426384D01*
X143030492Y-64426384D02*
X142982873Y-64331146D01*
X142982873Y-64331146D02*
X142935254Y-64283527D01*
X142935254Y-64283527D02*
X142840016Y-64235908D01*
X142840016Y-64235908D02*
X142649540Y-64188289D01*
X142649540Y-64188289D02*
X142554302Y-64140670D01*
X142554302Y-64140670D02*
X142506683Y-64093051D01*
X142506683Y-64093051D02*
X142459064Y-63997813D01*
X142459064Y-63997813D02*
X142459064Y-63902575D01*
X142459064Y-63902575D02*
X142506683Y-63807337D01*
X142506683Y-63807337D02*
X142554302Y-63759718D01*
X142554302Y-63759718D02*
X142649540Y-63712099D01*
X142649540Y-63712099D02*
X142887635Y-63712099D01*
X142887635Y-63712099D02*
X143030492Y-63759718D01*
X143459064Y-64188289D02*
X143792397Y-64188289D01*
X143935254Y-64712099D02*
X143459064Y-64712099D01*
X143459064Y-64712099D02*
X143459064Y-63712099D01*
X143459064Y-63712099D02*
X143935254Y-63712099D01*
X144220969Y-63712099D02*
X144792397Y-63712099D01*
X144506683Y-64712099D02*
X144506683Y-63712099D01*
X157845601Y-61222438D02*
X157750363Y-61174819D01*
X157750363Y-61174819D02*
X157607506Y-61174819D01*
X157607506Y-61174819D02*
X157464649Y-61222438D01*
X157464649Y-61222438D02*
X157369411Y-61317676D01*
X157369411Y-61317676D02*
X157321792Y-61412914D01*
X157321792Y-61412914D02*
X157274173Y-61603390D01*
X157274173Y-61603390D02*
X157274173Y-61746247D01*
X157274173Y-61746247D02*
X157321792Y-61936723D01*
X157321792Y-61936723D02*
X157369411Y-62031961D01*
X157369411Y-62031961D02*
X157464649Y-62127200D01*
X157464649Y-62127200D02*
X157607506Y-62174819D01*
X157607506Y-62174819D02*
X157702744Y-62174819D01*
X157702744Y-62174819D02*
X157845601Y-62127200D01*
X157845601Y-62127200D02*
X157893220Y-62079580D01*
X157893220Y-62079580D02*
X157893220Y-61746247D01*
X157893220Y-61746247D02*
X157702744Y-61746247D01*
X158321792Y-62174819D02*
X158321792Y-61174819D01*
X158321792Y-61174819D02*
X158893220Y-62174819D01*
X158893220Y-62174819D02*
X158893220Y-61174819D01*
X159369411Y-62174819D02*
X159369411Y-61174819D01*
X159369411Y-61174819D02*
X159607506Y-61174819D01*
X159607506Y-61174819D02*
X159750363Y-61222438D01*
X159750363Y-61222438D02*
X159845601Y-61317676D01*
X159845601Y-61317676D02*
X159893220Y-61412914D01*
X159893220Y-61412914D02*
X159940839Y-61603390D01*
X159940839Y-61603390D02*
X159940839Y-61746247D01*
X159940839Y-61746247D02*
X159893220Y-61936723D01*
X159893220Y-61936723D02*
X159845601Y-62031961D01*
X159845601Y-62031961D02*
X159750363Y-62127200D01*
X159750363Y-62127200D02*
X159607506Y-62174819D01*
X159607506Y-62174819D02*
X159369411Y-62174819D01*
X156864649Y-63909366D02*
X156797982Y-63876033D01*
X156797982Y-63876033D02*
X156697982Y-63876033D01*
X156697982Y-63876033D02*
X156597982Y-63909366D01*
X156597982Y-63909366D02*
X156531316Y-63976033D01*
X156531316Y-63976033D02*
X156497982Y-64042700D01*
X156497982Y-64042700D02*
X156464649Y-64176033D01*
X156464649Y-64176033D02*
X156464649Y-64276033D01*
X156464649Y-64276033D02*
X156497982Y-64409366D01*
X156497982Y-64409366D02*
X156531316Y-64476033D01*
X156531316Y-64476033D02*
X156597982Y-64542700D01*
X156597982Y-64542700D02*
X156697982Y-64576033D01*
X156697982Y-64576033D02*
X156764649Y-64576033D01*
X156764649Y-64576033D02*
X156864649Y-64542700D01*
X156864649Y-64542700D02*
X156897982Y-64509366D01*
X156897982Y-64509366D02*
X156897982Y-64276033D01*
X156897982Y-64276033D02*
X156764649Y-64276033D01*
X157197982Y-64576033D02*
X157197982Y-63876033D01*
X157197982Y-63876033D02*
X157464649Y-63876033D01*
X157464649Y-63876033D02*
X157531316Y-63909366D01*
X157531316Y-63909366D02*
X157564649Y-63942700D01*
X157564649Y-63942700D02*
X157597982Y-64009366D01*
X157597982Y-64009366D02*
X157597982Y-64109366D01*
X157597982Y-64109366D02*
X157564649Y-64176033D01*
X157564649Y-64176033D02*
X157531316Y-64209366D01*
X157531316Y-64209366D02*
X157464649Y-64242700D01*
X157464649Y-64242700D02*
X157197982Y-64242700D01*
X157897982Y-64576033D02*
X157897982Y-63876033D01*
X158364649Y-63876033D02*
X158497982Y-63876033D01*
X158497982Y-63876033D02*
X158564649Y-63909366D01*
X158564649Y-63909366D02*
X158631315Y-63976033D01*
X158631315Y-63976033D02*
X158664649Y-64109366D01*
X158664649Y-64109366D02*
X158664649Y-64342700D01*
X158664649Y-64342700D02*
X158631315Y-64476033D01*
X158631315Y-64476033D02*
X158564649Y-64542700D01*
X158564649Y-64542700D02*
X158497982Y-64576033D01*
X158497982Y-64576033D02*
X158364649Y-64576033D01*
X158364649Y-64576033D02*
X158297982Y-64542700D01*
X158297982Y-64542700D02*
X158231315Y-64476033D01*
X158231315Y-64476033D02*
X158197982Y-64342700D01*
X158197982Y-64342700D02*
X158197982Y-64109366D01*
X158197982Y-64109366D02*
X158231315Y-63976033D01*
X158231315Y-63976033D02*
X158297982Y-63909366D01*
X158297982Y-63909366D02*
X158364649Y-63876033D01*
X158931315Y-63942700D02*
X158964648Y-63909366D01*
X158964648Y-63909366D02*
X159031315Y-63876033D01*
X159031315Y-63876033D02*
X159197982Y-63876033D01*
X159197982Y-63876033D02*
X159264648Y-63909366D01*
X159264648Y-63909366D02*
X159297982Y-63942700D01*
X159297982Y-63942700D02*
X159331315Y-64009366D01*
X159331315Y-64009366D02*
X159331315Y-64076033D01*
X159331315Y-64076033D02*
X159297982Y-64176033D01*
X159297982Y-64176033D02*
X158897982Y-64576033D01*
X158897982Y-64576033D02*
X159331315Y-64576033D01*
X159564649Y-63876033D02*
X159997982Y-63876033D01*
X159997982Y-63876033D02*
X159764649Y-64142700D01*
X159764649Y-64142700D02*
X159864649Y-64142700D01*
X159864649Y-64142700D02*
X159931315Y-64176033D01*
X159931315Y-64176033D02*
X159964649Y-64209366D01*
X159964649Y-64209366D02*
X159997982Y-64276033D01*
X159997982Y-64276033D02*
X159997982Y-64442700D01*
X159997982Y-64442700D02*
X159964649Y-64509366D01*
X159964649Y-64509366D02*
X159931315Y-64542700D01*
X159931315Y-64542700D02*
X159864649Y-64576033D01*
X159864649Y-64576033D02*
X159664649Y-64576033D01*
X159664649Y-64576033D02*
X159597982Y-64542700D01*
X159597982Y-64542700D02*
X159564649Y-64509366D01*
X156864649Y-66449366D02*
X156797982Y-66416033D01*
X156797982Y-66416033D02*
X156697982Y-66416033D01*
X156697982Y-66416033D02*
X156597982Y-66449366D01*
X156597982Y-66449366D02*
X156531316Y-66516033D01*
X156531316Y-66516033D02*
X156497982Y-66582700D01*
X156497982Y-66582700D02*
X156464649Y-66716033D01*
X156464649Y-66716033D02*
X156464649Y-66816033D01*
X156464649Y-66816033D02*
X156497982Y-66949366D01*
X156497982Y-66949366D02*
X156531316Y-67016033D01*
X156531316Y-67016033D02*
X156597982Y-67082700D01*
X156597982Y-67082700D02*
X156697982Y-67116033D01*
X156697982Y-67116033D02*
X156764649Y-67116033D01*
X156764649Y-67116033D02*
X156864649Y-67082700D01*
X156864649Y-67082700D02*
X156897982Y-67049366D01*
X156897982Y-67049366D02*
X156897982Y-66816033D01*
X156897982Y-66816033D02*
X156764649Y-66816033D01*
X157197982Y-67116033D02*
X157197982Y-66416033D01*
X157197982Y-66416033D02*
X157464649Y-66416033D01*
X157464649Y-66416033D02*
X157531316Y-66449366D01*
X157531316Y-66449366D02*
X157564649Y-66482700D01*
X157564649Y-66482700D02*
X157597982Y-66549366D01*
X157597982Y-66549366D02*
X157597982Y-66649366D01*
X157597982Y-66649366D02*
X157564649Y-66716033D01*
X157564649Y-66716033D02*
X157531316Y-66749366D01*
X157531316Y-66749366D02*
X157464649Y-66782700D01*
X157464649Y-66782700D02*
X157197982Y-66782700D01*
X157897982Y-67116033D02*
X157897982Y-66416033D01*
X158364649Y-66416033D02*
X158497982Y-66416033D01*
X158497982Y-66416033D02*
X158564649Y-66449366D01*
X158564649Y-66449366D02*
X158631315Y-66516033D01*
X158631315Y-66516033D02*
X158664649Y-66649366D01*
X158664649Y-66649366D02*
X158664649Y-66882700D01*
X158664649Y-66882700D02*
X158631315Y-67016033D01*
X158631315Y-67016033D02*
X158564649Y-67082700D01*
X158564649Y-67082700D02*
X158497982Y-67116033D01*
X158497982Y-67116033D02*
X158364649Y-67116033D01*
X158364649Y-67116033D02*
X158297982Y-67082700D01*
X158297982Y-67082700D02*
X158231315Y-67016033D01*
X158231315Y-67016033D02*
X158197982Y-66882700D01*
X158197982Y-66882700D02*
X158197982Y-66649366D01*
X158197982Y-66649366D02*
X158231315Y-66516033D01*
X158231315Y-66516033D02*
X158297982Y-66449366D01*
X158297982Y-66449366D02*
X158364649Y-66416033D01*
X158931315Y-66482700D02*
X158964648Y-66449366D01*
X158964648Y-66449366D02*
X159031315Y-66416033D01*
X159031315Y-66416033D02*
X159197982Y-66416033D01*
X159197982Y-66416033D02*
X159264648Y-66449366D01*
X159264648Y-66449366D02*
X159297982Y-66482700D01*
X159297982Y-66482700D02*
X159331315Y-66549366D01*
X159331315Y-66549366D02*
X159331315Y-66616033D01*
X159331315Y-66616033D02*
X159297982Y-66716033D01*
X159297982Y-66716033D02*
X158897982Y-67116033D01*
X158897982Y-67116033D02*
X159331315Y-67116033D01*
X159597982Y-66482700D02*
X159631315Y-66449366D01*
X159631315Y-66449366D02*
X159697982Y-66416033D01*
X159697982Y-66416033D02*
X159864649Y-66416033D01*
X159864649Y-66416033D02*
X159931315Y-66449366D01*
X159931315Y-66449366D02*
X159964649Y-66482700D01*
X159964649Y-66482700D02*
X159997982Y-66549366D01*
X159997982Y-66549366D02*
X159997982Y-66616033D01*
X159997982Y-66616033D02*
X159964649Y-66716033D01*
X159964649Y-66716033D02*
X159564649Y-67116033D01*
X159564649Y-67116033D02*
X159997982Y-67116033D01*
X153497983Y-68989366D02*
X153431316Y-68956033D01*
X153431316Y-68956033D02*
X153331316Y-68956033D01*
X153331316Y-68956033D02*
X153231316Y-68989366D01*
X153231316Y-68989366D02*
X153164650Y-69056033D01*
X153164650Y-69056033D02*
X153131316Y-69122700D01*
X153131316Y-69122700D02*
X153097983Y-69256033D01*
X153097983Y-69256033D02*
X153097983Y-69356033D01*
X153097983Y-69356033D02*
X153131316Y-69489366D01*
X153131316Y-69489366D02*
X153164650Y-69556033D01*
X153164650Y-69556033D02*
X153231316Y-69622700D01*
X153231316Y-69622700D02*
X153331316Y-69656033D01*
X153331316Y-69656033D02*
X153397983Y-69656033D01*
X153397983Y-69656033D02*
X153497983Y-69622700D01*
X153497983Y-69622700D02*
X153531316Y-69589366D01*
X153531316Y-69589366D02*
X153531316Y-69356033D01*
X153531316Y-69356033D02*
X153397983Y-69356033D01*
X153831316Y-69656033D02*
X153831316Y-68956033D01*
X153831316Y-68956033D02*
X154097983Y-68956033D01*
X154097983Y-68956033D02*
X154164650Y-68989366D01*
X154164650Y-68989366D02*
X154197983Y-69022700D01*
X154197983Y-69022700D02*
X154231316Y-69089366D01*
X154231316Y-69089366D02*
X154231316Y-69189366D01*
X154231316Y-69189366D02*
X154197983Y-69256033D01*
X154197983Y-69256033D02*
X154164650Y-69289366D01*
X154164650Y-69289366D02*
X154097983Y-69322700D01*
X154097983Y-69322700D02*
X153831316Y-69322700D01*
X154531316Y-69656033D02*
X154531316Y-68956033D01*
X154997983Y-68956033D02*
X155131316Y-68956033D01*
X155131316Y-68956033D02*
X155197983Y-68989366D01*
X155197983Y-68989366D02*
X155264649Y-69056033D01*
X155264649Y-69056033D02*
X155297983Y-69189366D01*
X155297983Y-69189366D02*
X155297983Y-69422700D01*
X155297983Y-69422700D02*
X155264649Y-69556033D01*
X155264649Y-69556033D02*
X155197983Y-69622700D01*
X155197983Y-69622700D02*
X155131316Y-69656033D01*
X155131316Y-69656033D02*
X154997983Y-69656033D01*
X154997983Y-69656033D02*
X154931316Y-69622700D01*
X154931316Y-69622700D02*
X154864649Y-69556033D01*
X154864649Y-69556033D02*
X154831316Y-69422700D01*
X154831316Y-69422700D02*
X154831316Y-69189366D01*
X154831316Y-69189366D02*
X154864649Y-69056033D01*
X154864649Y-69056033D02*
X154931316Y-68989366D01*
X154931316Y-68989366D02*
X154997983Y-68956033D01*
X155964649Y-69656033D02*
X155564649Y-69656033D01*
X155764649Y-69656033D02*
X155764649Y-68956033D01*
X155764649Y-68956033D02*
X155697982Y-69056033D01*
X155697982Y-69056033D02*
X155631316Y-69122700D01*
X155631316Y-69122700D02*
X155564649Y-69156033D01*
X156764649Y-68922700D02*
X156164649Y-69822700D01*
X156997982Y-68956033D02*
X156997982Y-69522700D01*
X156997982Y-69522700D02*
X157031316Y-69589366D01*
X157031316Y-69589366D02*
X157064649Y-69622700D01*
X157064649Y-69622700D02*
X157131316Y-69656033D01*
X157131316Y-69656033D02*
X157264649Y-69656033D01*
X157264649Y-69656033D02*
X157331316Y-69622700D01*
X157331316Y-69622700D02*
X157364649Y-69589366D01*
X157364649Y-69589366D02*
X157397982Y-69522700D01*
X157397982Y-69522700D02*
X157397982Y-68956033D01*
X157864649Y-68956033D02*
X157931315Y-68956033D01*
X157931315Y-68956033D02*
X157997982Y-68989366D01*
X157997982Y-68989366D02*
X158031315Y-69022700D01*
X158031315Y-69022700D02*
X158064649Y-69089366D01*
X158064649Y-69089366D02*
X158097982Y-69222700D01*
X158097982Y-69222700D02*
X158097982Y-69389366D01*
X158097982Y-69389366D02*
X158064649Y-69522700D01*
X158064649Y-69522700D02*
X158031315Y-69589366D01*
X158031315Y-69589366D02*
X157997982Y-69622700D01*
X157997982Y-69622700D02*
X157931315Y-69656033D01*
X157931315Y-69656033D02*
X157864649Y-69656033D01*
X157864649Y-69656033D02*
X157797982Y-69622700D01*
X157797982Y-69622700D02*
X157764649Y-69589366D01*
X157764649Y-69589366D02*
X157731315Y-69522700D01*
X157731315Y-69522700D02*
X157697982Y-69389366D01*
X157697982Y-69389366D02*
X157697982Y-69222700D01*
X157697982Y-69222700D02*
X157731315Y-69089366D01*
X157731315Y-69089366D02*
X157764649Y-69022700D01*
X157764649Y-69022700D02*
X157797982Y-68989366D01*
X157797982Y-68989366D02*
X157864649Y-68956033D01*
X158297982Y-68956033D02*
X158697982Y-68956033D01*
X158497982Y-69656033D02*
X158497982Y-68956033D01*
X158864649Y-68956033D02*
X159331315Y-69656033D01*
X159331315Y-68956033D02*
X158864649Y-69656033D01*
X159597982Y-69656033D02*
X159597982Y-68956033D01*
X159597982Y-68956033D02*
X159764649Y-68956033D01*
X159764649Y-68956033D02*
X159864649Y-68989366D01*
X159864649Y-68989366D02*
X159931316Y-69056033D01*
X159931316Y-69056033D02*
X159964649Y-69122700D01*
X159964649Y-69122700D02*
X159997982Y-69256033D01*
X159997982Y-69256033D02*
X159997982Y-69356033D01*
X159997982Y-69356033D02*
X159964649Y-69489366D01*
X159964649Y-69489366D02*
X159931316Y-69556033D01*
X159931316Y-69556033D02*
X159864649Y-69622700D01*
X159864649Y-69622700D02*
X159764649Y-69656033D01*
X159764649Y-69656033D02*
X159597982Y-69656033D01*
X153331316Y-71529366D02*
X153264649Y-71496033D01*
X153264649Y-71496033D02*
X153164649Y-71496033D01*
X153164649Y-71496033D02*
X153064649Y-71529366D01*
X153064649Y-71529366D02*
X152997983Y-71596033D01*
X152997983Y-71596033D02*
X152964649Y-71662700D01*
X152964649Y-71662700D02*
X152931316Y-71796033D01*
X152931316Y-71796033D02*
X152931316Y-71896033D01*
X152931316Y-71896033D02*
X152964649Y-72029366D01*
X152964649Y-72029366D02*
X152997983Y-72096033D01*
X152997983Y-72096033D02*
X153064649Y-72162700D01*
X153064649Y-72162700D02*
X153164649Y-72196033D01*
X153164649Y-72196033D02*
X153231316Y-72196033D01*
X153231316Y-72196033D02*
X153331316Y-72162700D01*
X153331316Y-72162700D02*
X153364649Y-72129366D01*
X153364649Y-72129366D02*
X153364649Y-71896033D01*
X153364649Y-71896033D02*
X153231316Y-71896033D01*
X153664649Y-72196033D02*
X153664649Y-71496033D01*
X153664649Y-71496033D02*
X153931316Y-71496033D01*
X153931316Y-71496033D02*
X153997983Y-71529366D01*
X153997983Y-71529366D02*
X154031316Y-71562700D01*
X154031316Y-71562700D02*
X154064649Y-71629366D01*
X154064649Y-71629366D02*
X154064649Y-71729366D01*
X154064649Y-71729366D02*
X154031316Y-71796033D01*
X154031316Y-71796033D02*
X153997983Y-71829366D01*
X153997983Y-71829366D02*
X153931316Y-71862700D01*
X153931316Y-71862700D02*
X153664649Y-71862700D01*
X154364649Y-72196033D02*
X154364649Y-71496033D01*
X154831316Y-71496033D02*
X154964649Y-71496033D01*
X154964649Y-71496033D02*
X155031316Y-71529366D01*
X155031316Y-71529366D02*
X155097982Y-71596033D01*
X155097982Y-71596033D02*
X155131316Y-71729366D01*
X155131316Y-71729366D02*
X155131316Y-71962700D01*
X155131316Y-71962700D02*
X155097982Y-72096033D01*
X155097982Y-72096033D02*
X155031316Y-72162700D01*
X155031316Y-72162700D02*
X154964649Y-72196033D01*
X154964649Y-72196033D02*
X154831316Y-72196033D01*
X154831316Y-72196033D02*
X154764649Y-72162700D01*
X154764649Y-72162700D02*
X154697982Y-72096033D01*
X154697982Y-72096033D02*
X154664649Y-71962700D01*
X154664649Y-71962700D02*
X154664649Y-71729366D01*
X154664649Y-71729366D02*
X154697982Y-71596033D01*
X154697982Y-71596033D02*
X154764649Y-71529366D01*
X154764649Y-71529366D02*
X154831316Y-71496033D01*
X155364649Y-71496033D02*
X155797982Y-71496033D01*
X155797982Y-71496033D02*
X155564649Y-71762700D01*
X155564649Y-71762700D02*
X155664649Y-71762700D01*
X155664649Y-71762700D02*
X155731315Y-71796033D01*
X155731315Y-71796033D02*
X155764649Y-71829366D01*
X155764649Y-71829366D02*
X155797982Y-71896033D01*
X155797982Y-71896033D02*
X155797982Y-72062700D01*
X155797982Y-72062700D02*
X155764649Y-72129366D01*
X155764649Y-72129366D02*
X155731315Y-72162700D01*
X155731315Y-72162700D02*
X155664649Y-72196033D01*
X155664649Y-72196033D02*
X155464649Y-72196033D01*
X155464649Y-72196033D02*
X155397982Y-72162700D01*
X155397982Y-72162700D02*
X155364649Y-72129366D01*
X156597982Y-71462700D02*
X155997982Y-72362700D01*
X156831315Y-71496033D02*
X156831315Y-72062700D01*
X156831315Y-72062700D02*
X156864649Y-72129366D01*
X156864649Y-72129366D02*
X156897982Y-72162700D01*
X156897982Y-72162700D02*
X156964649Y-72196033D01*
X156964649Y-72196033D02*
X157097982Y-72196033D01*
X157097982Y-72196033D02*
X157164649Y-72162700D01*
X157164649Y-72162700D02*
X157197982Y-72129366D01*
X157197982Y-72129366D02*
X157231315Y-72062700D01*
X157231315Y-72062700D02*
X157231315Y-71496033D01*
X157697982Y-71496033D02*
X157764648Y-71496033D01*
X157764648Y-71496033D02*
X157831315Y-71529366D01*
X157831315Y-71529366D02*
X157864648Y-71562700D01*
X157864648Y-71562700D02*
X157897982Y-71629366D01*
X157897982Y-71629366D02*
X157931315Y-71762700D01*
X157931315Y-71762700D02*
X157931315Y-71929366D01*
X157931315Y-71929366D02*
X157897982Y-72062700D01*
X157897982Y-72062700D02*
X157864648Y-72129366D01*
X157864648Y-72129366D02*
X157831315Y-72162700D01*
X157831315Y-72162700D02*
X157764648Y-72196033D01*
X157764648Y-72196033D02*
X157697982Y-72196033D01*
X157697982Y-72196033D02*
X157631315Y-72162700D01*
X157631315Y-72162700D02*
X157597982Y-72129366D01*
X157597982Y-72129366D02*
X157564648Y-72062700D01*
X157564648Y-72062700D02*
X157531315Y-71929366D01*
X157531315Y-71929366D02*
X157531315Y-71762700D01*
X157531315Y-71762700D02*
X157564648Y-71629366D01*
X157564648Y-71629366D02*
X157597982Y-71562700D01*
X157597982Y-71562700D02*
X157631315Y-71529366D01*
X157631315Y-71529366D02*
X157697982Y-71496033D01*
X158631315Y-72196033D02*
X158397982Y-71862700D01*
X158231315Y-72196033D02*
X158231315Y-71496033D01*
X158231315Y-71496033D02*
X158497982Y-71496033D01*
X158497982Y-71496033D02*
X158564649Y-71529366D01*
X158564649Y-71529366D02*
X158597982Y-71562700D01*
X158597982Y-71562700D02*
X158631315Y-71629366D01*
X158631315Y-71629366D02*
X158631315Y-71729366D01*
X158631315Y-71729366D02*
X158597982Y-71796033D01*
X158597982Y-71796033D02*
X158564649Y-71829366D01*
X158564649Y-71829366D02*
X158497982Y-71862700D01*
X158497982Y-71862700D02*
X158231315Y-71862700D01*
X158864649Y-71496033D02*
X159331315Y-72196033D01*
X159331315Y-71496033D02*
X158864649Y-72196033D01*
X159597982Y-72196033D02*
X159597982Y-71496033D01*
X159597982Y-71496033D02*
X159764649Y-71496033D01*
X159764649Y-71496033D02*
X159864649Y-71529366D01*
X159864649Y-71529366D02*
X159931316Y-71596033D01*
X159931316Y-71596033D02*
X159964649Y-71662700D01*
X159964649Y-71662700D02*
X159997982Y-71796033D01*
X159997982Y-71796033D02*
X159997982Y-71896033D01*
X159997982Y-71896033D02*
X159964649Y-72029366D01*
X159964649Y-72029366D02*
X159931316Y-72096033D01*
X159931316Y-72096033D02*
X159864649Y-72162700D01*
X159864649Y-72162700D02*
X159764649Y-72196033D01*
X159764649Y-72196033D02*
X159597982Y-72196033D01*
X156864649Y-74069366D02*
X156797982Y-74036033D01*
X156797982Y-74036033D02*
X156697982Y-74036033D01*
X156697982Y-74036033D02*
X156597982Y-74069366D01*
X156597982Y-74069366D02*
X156531316Y-74136033D01*
X156531316Y-74136033D02*
X156497982Y-74202700D01*
X156497982Y-74202700D02*
X156464649Y-74336033D01*
X156464649Y-74336033D02*
X156464649Y-74436033D01*
X156464649Y-74436033D02*
X156497982Y-74569366D01*
X156497982Y-74569366D02*
X156531316Y-74636033D01*
X156531316Y-74636033D02*
X156597982Y-74702700D01*
X156597982Y-74702700D02*
X156697982Y-74736033D01*
X156697982Y-74736033D02*
X156764649Y-74736033D01*
X156764649Y-74736033D02*
X156864649Y-74702700D01*
X156864649Y-74702700D02*
X156897982Y-74669366D01*
X156897982Y-74669366D02*
X156897982Y-74436033D01*
X156897982Y-74436033D02*
X156764649Y-74436033D01*
X157197982Y-74736033D02*
X157197982Y-74036033D01*
X157197982Y-74036033D02*
X157464649Y-74036033D01*
X157464649Y-74036033D02*
X157531316Y-74069366D01*
X157531316Y-74069366D02*
X157564649Y-74102700D01*
X157564649Y-74102700D02*
X157597982Y-74169366D01*
X157597982Y-74169366D02*
X157597982Y-74269366D01*
X157597982Y-74269366D02*
X157564649Y-74336033D01*
X157564649Y-74336033D02*
X157531316Y-74369366D01*
X157531316Y-74369366D02*
X157464649Y-74402700D01*
X157464649Y-74402700D02*
X157197982Y-74402700D01*
X157897982Y-74736033D02*
X157897982Y-74036033D01*
X158364649Y-74036033D02*
X158497982Y-74036033D01*
X158497982Y-74036033D02*
X158564649Y-74069366D01*
X158564649Y-74069366D02*
X158631315Y-74136033D01*
X158631315Y-74136033D02*
X158664649Y-74269366D01*
X158664649Y-74269366D02*
X158664649Y-74502700D01*
X158664649Y-74502700D02*
X158631315Y-74636033D01*
X158631315Y-74636033D02*
X158564649Y-74702700D01*
X158564649Y-74702700D02*
X158497982Y-74736033D01*
X158497982Y-74736033D02*
X158364649Y-74736033D01*
X158364649Y-74736033D02*
X158297982Y-74702700D01*
X158297982Y-74702700D02*
X158231315Y-74636033D01*
X158231315Y-74636033D02*
X158197982Y-74502700D01*
X158197982Y-74502700D02*
X158197982Y-74269366D01*
X158197982Y-74269366D02*
X158231315Y-74136033D01*
X158231315Y-74136033D02*
X158297982Y-74069366D01*
X158297982Y-74069366D02*
X158364649Y-74036033D01*
X158931315Y-74102700D02*
X158964648Y-74069366D01*
X158964648Y-74069366D02*
X159031315Y-74036033D01*
X159031315Y-74036033D02*
X159197982Y-74036033D01*
X159197982Y-74036033D02*
X159264648Y-74069366D01*
X159264648Y-74069366D02*
X159297982Y-74102700D01*
X159297982Y-74102700D02*
X159331315Y-74169366D01*
X159331315Y-74169366D02*
X159331315Y-74236033D01*
X159331315Y-74236033D02*
X159297982Y-74336033D01*
X159297982Y-74336033D02*
X158897982Y-74736033D01*
X158897982Y-74736033D02*
X159331315Y-74736033D01*
X159997982Y-74736033D02*
X159597982Y-74736033D01*
X159797982Y-74736033D02*
X159797982Y-74036033D01*
X159797982Y-74036033D02*
X159731315Y-74136033D01*
X159731315Y-74136033D02*
X159664649Y-74202700D01*
X159664649Y-74202700D02*
X159597982Y-74236033D01*
X157845601Y-76462438D02*
X157750363Y-76414819D01*
X157750363Y-76414819D02*
X157607506Y-76414819D01*
X157607506Y-76414819D02*
X157464649Y-76462438D01*
X157464649Y-76462438D02*
X157369411Y-76557676D01*
X157369411Y-76557676D02*
X157321792Y-76652914D01*
X157321792Y-76652914D02*
X157274173Y-76843390D01*
X157274173Y-76843390D02*
X157274173Y-76986247D01*
X157274173Y-76986247D02*
X157321792Y-77176723D01*
X157321792Y-77176723D02*
X157369411Y-77271961D01*
X157369411Y-77271961D02*
X157464649Y-77367200D01*
X157464649Y-77367200D02*
X157607506Y-77414819D01*
X157607506Y-77414819D02*
X157702744Y-77414819D01*
X157702744Y-77414819D02*
X157845601Y-77367200D01*
X157845601Y-77367200D02*
X157893220Y-77319580D01*
X157893220Y-77319580D02*
X157893220Y-76986247D01*
X157893220Y-76986247D02*
X157702744Y-76986247D01*
X158321792Y-77414819D02*
X158321792Y-76414819D01*
X158321792Y-76414819D02*
X158893220Y-77414819D01*
X158893220Y-77414819D02*
X158893220Y-76414819D01*
X159369411Y-77414819D02*
X159369411Y-76414819D01*
X159369411Y-76414819D02*
X159607506Y-76414819D01*
X159607506Y-76414819D02*
X159750363Y-76462438D01*
X159750363Y-76462438D02*
X159845601Y-76557676D01*
X159845601Y-76557676D02*
X159893220Y-76652914D01*
X159893220Y-76652914D02*
X159940839Y-76843390D01*
X159940839Y-76843390D02*
X159940839Y-76986247D01*
X159940839Y-76986247D02*
X159893220Y-77176723D01*
X159893220Y-77176723D02*
X159845601Y-77271961D01*
X159845601Y-77271961D02*
X159750363Y-77367200D01*
X159750363Y-77367200D02*
X159607506Y-77414819D01*
X159607506Y-77414819D02*
X159369411Y-77414819D01*
X156864649Y-79149366D02*
X156797982Y-79116033D01*
X156797982Y-79116033D02*
X156697982Y-79116033D01*
X156697982Y-79116033D02*
X156597982Y-79149366D01*
X156597982Y-79149366D02*
X156531316Y-79216033D01*
X156531316Y-79216033D02*
X156497982Y-79282700D01*
X156497982Y-79282700D02*
X156464649Y-79416033D01*
X156464649Y-79416033D02*
X156464649Y-79516033D01*
X156464649Y-79516033D02*
X156497982Y-79649366D01*
X156497982Y-79649366D02*
X156531316Y-79716033D01*
X156531316Y-79716033D02*
X156597982Y-79782700D01*
X156597982Y-79782700D02*
X156697982Y-79816033D01*
X156697982Y-79816033D02*
X156764649Y-79816033D01*
X156764649Y-79816033D02*
X156864649Y-79782700D01*
X156864649Y-79782700D02*
X156897982Y-79749366D01*
X156897982Y-79749366D02*
X156897982Y-79516033D01*
X156897982Y-79516033D02*
X156764649Y-79516033D01*
X157197982Y-79816033D02*
X157197982Y-79116033D01*
X157197982Y-79116033D02*
X157464649Y-79116033D01*
X157464649Y-79116033D02*
X157531316Y-79149366D01*
X157531316Y-79149366D02*
X157564649Y-79182700D01*
X157564649Y-79182700D02*
X157597982Y-79249366D01*
X157597982Y-79249366D02*
X157597982Y-79349366D01*
X157597982Y-79349366D02*
X157564649Y-79416033D01*
X157564649Y-79416033D02*
X157531316Y-79449366D01*
X157531316Y-79449366D02*
X157464649Y-79482700D01*
X157464649Y-79482700D02*
X157197982Y-79482700D01*
X157897982Y-79816033D02*
X157897982Y-79116033D01*
X158364649Y-79116033D02*
X158497982Y-79116033D01*
X158497982Y-79116033D02*
X158564649Y-79149366D01*
X158564649Y-79149366D02*
X158631315Y-79216033D01*
X158631315Y-79216033D02*
X158664649Y-79349366D01*
X158664649Y-79349366D02*
X158664649Y-79582700D01*
X158664649Y-79582700D02*
X158631315Y-79716033D01*
X158631315Y-79716033D02*
X158564649Y-79782700D01*
X158564649Y-79782700D02*
X158497982Y-79816033D01*
X158497982Y-79816033D02*
X158364649Y-79816033D01*
X158364649Y-79816033D02*
X158297982Y-79782700D01*
X158297982Y-79782700D02*
X158231315Y-79716033D01*
X158231315Y-79716033D02*
X158197982Y-79582700D01*
X158197982Y-79582700D02*
X158197982Y-79349366D01*
X158197982Y-79349366D02*
X158231315Y-79216033D01*
X158231315Y-79216033D02*
X158297982Y-79149366D01*
X158297982Y-79149366D02*
X158364649Y-79116033D01*
X159331315Y-79816033D02*
X158931315Y-79816033D01*
X159131315Y-79816033D02*
X159131315Y-79116033D01*
X159131315Y-79116033D02*
X159064648Y-79216033D01*
X159064648Y-79216033D02*
X158997982Y-79282700D01*
X158997982Y-79282700D02*
X158931315Y-79316033D01*
X159664649Y-79816033D02*
X159797982Y-79816033D01*
X159797982Y-79816033D02*
X159864649Y-79782700D01*
X159864649Y-79782700D02*
X159897982Y-79749366D01*
X159897982Y-79749366D02*
X159964649Y-79649366D01*
X159964649Y-79649366D02*
X159997982Y-79516033D01*
X159997982Y-79516033D02*
X159997982Y-79249366D01*
X159997982Y-79249366D02*
X159964649Y-79182700D01*
X159964649Y-79182700D02*
X159931315Y-79149366D01*
X159931315Y-79149366D02*
X159864649Y-79116033D01*
X159864649Y-79116033D02*
X159731315Y-79116033D01*
X159731315Y-79116033D02*
X159664649Y-79149366D01*
X159664649Y-79149366D02*
X159631315Y-79182700D01*
X159631315Y-79182700D02*
X159597982Y-79249366D01*
X159597982Y-79249366D02*
X159597982Y-79416033D01*
X159597982Y-79416033D02*
X159631315Y-79482700D01*
X159631315Y-79482700D02*
X159664649Y-79516033D01*
X159664649Y-79516033D02*
X159731315Y-79549366D01*
X159731315Y-79549366D02*
X159864649Y-79549366D01*
X159864649Y-79549366D02*
X159931315Y-79516033D01*
X159931315Y-79516033D02*
X159964649Y-79482700D01*
X159964649Y-79482700D02*
X159997982Y-79416033D01*
X156864649Y-81689366D02*
X156797982Y-81656033D01*
X156797982Y-81656033D02*
X156697982Y-81656033D01*
X156697982Y-81656033D02*
X156597982Y-81689366D01*
X156597982Y-81689366D02*
X156531316Y-81756033D01*
X156531316Y-81756033D02*
X156497982Y-81822700D01*
X156497982Y-81822700D02*
X156464649Y-81956033D01*
X156464649Y-81956033D02*
X156464649Y-82056033D01*
X156464649Y-82056033D02*
X156497982Y-82189366D01*
X156497982Y-82189366D02*
X156531316Y-82256033D01*
X156531316Y-82256033D02*
X156597982Y-82322700D01*
X156597982Y-82322700D02*
X156697982Y-82356033D01*
X156697982Y-82356033D02*
X156764649Y-82356033D01*
X156764649Y-82356033D02*
X156864649Y-82322700D01*
X156864649Y-82322700D02*
X156897982Y-82289366D01*
X156897982Y-82289366D02*
X156897982Y-82056033D01*
X156897982Y-82056033D02*
X156764649Y-82056033D01*
X157197982Y-82356033D02*
X157197982Y-81656033D01*
X157197982Y-81656033D02*
X157464649Y-81656033D01*
X157464649Y-81656033D02*
X157531316Y-81689366D01*
X157531316Y-81689366D02*
X157564649Y-81722700D01*
X157564649Y-81722700D02*
X157597982Y-81789366D01*
X157597982Y-81789366D02*
X157597982Y-81889366D01*
X157597982Y-81889366D02*
X157564649Y-81956033D01*
X157564649Y-81956033D02*
X157531316Y-81989366D01*
X157531316Y-81989366D02*
X157464649Y-82022700D01*
X157464649Y-82022700D02*
X157197982Y-82022700D01*
X157897982Y-82356033D02*
X157897982Y-81656033D01*
X158364649Y-81656033D02*
X158497982Y-81656033D01*
X158497982Y-81656033D02*
X158564649Y-81689366D01*
X158564649Y-81689366D02*
X158631315Y-81756033D01*
X158631315Y-81756033D02*
X158664649Y-81889366D01*
X158664649Y-81889366D02*
X158664649Y-82122700D01*
X158664649Y-82122700D02*
X158631315Y-82256033D01*
X158631315Y-82256033D02*
X158564649Y-82322700D01*
X158564649Y-82322700D02*
X158497982Y-82356033D01*
X158497982Y-82356033D02*
X158364649Y-82356033D01*
X158364649Y-82356033D02*
X158297982Y-82322700D01*
X158297982Y-82322700D02*
X158231315Y-82256033D01*
X158231315Y-82256033D02*
X158197982Y-82122700D01*
X158197982Y-82122700D02*
X158197982Y-81889366D01*
X158197982Y-81889366D02*
X158231315Y-81756033D01*
X158231315Y-81756033D02*
X158297982Y-81689366D01*
X158297982Y-81689366D02*
X158364649Y-81656033D01*
X159331315Y-82356033D02*
X158931315Y-82356033D01*
X159131315Y-82356033D02*
X159131315Y-81656033D01*
X159131315Y-81656033D02*
X159064648Y-81756033D01*
X159064648Y-81756033D02*
X158997982Y-81822700D01*
X158997982Y-81822700D02*
X158931315Y-81856033D01*
X159731315Y-81956033D02*
X159664649Y-81922700D01*
X159664649Y-81922700D02*
X159631315Y-81889366D01*
X159631315Y-81889366D02*
X159597982Y-81822700D01*
X159597982Y-81822700D02*
X159597982Y-81789366D01*
X159597982Y-81789366D02*
X159631315Y-81722700D01*
X159631315Y-81722700D02*
X159664649Y-81689366D01*
X159664649Y-81689366D02*
X159731315Y-81656033D01*
X159731315Y-81656033D02*
X159864649Y-81656033D01*
X159864649Y-81656033D02*
X159931315Y-81689366D01*
X159931315Y-81689366D02*
X159964649Y-81722700D01*
X159964649Y-81722700D02*
X159997982Y-81789366D01*
X159997982Y-81789366D02*
X159997982Y-81822700D01*
X159997982Y-81822700D02*
X159964649Y-81889366D01*
X159964649Y-81889366D02*
X159931315Y-81922700D01*
X159931315Y-81922700D02*
X159864649Y-81956033D01*
X159864649Y-81956033D02*
X159731315Y-81956033D01*
X159731315Y-81956033D02*
X159664649Y-81989366D01*
X159664649Y-81989366D02*
X159631315Y-82022700D01*
X159631315Y-82022700D02*
X159597982Y-82089366D01*
X159597982Y-82089366D02*
X159597982Y-82222700D01*
X159597982Y-82222700D02*
X159631315Y-82289366D01*
X159631315Y-82289366D02*
X159664649Y-82322700D01*
X159664649Y-82322700D02*
X159731315Y-82356033D01*
X159731315Y-82356033D02*
X159864649Y-82356033D01*
X159864649Y-82356033D02*
X159931315Y-82322700D01*
X159931315Y-82322700D02*
X159964649Y-82289366D01*
X159964649Y-82289366D02*
X159997982Y-82222700D01*
X159997982Y-82222700D02*
X159997982Y-82089366D01*
X159997982Y-82089366D02*
X159964649Y-82022700D01*
X159964649Y-82022700D02*
X159931315Y-81989366D01*
X159931315Y-81989366D02*
X159864649Y-81956033D01*
X157531316Y-84229366D02*
X157464649Y-84196033D01*
X157464649Y-84196033D02*
X157364649Y-84196033D01*
X157364649Y-84196033D02*
X157264649Y-84229366D01*
X157264649Y-84229366D02*
X157197983Y-84296033D01*
X157197983Y-84296033D02*
X157164649Y-84362700D01*
X157164649Y-84362700D02*
X157131316Y-84496033D01*
X157131316Y-84496033D02*
X157131316Y-84596033D01*
X157131316Y-84596033D02*
X157164649Y-84729366D01*
X157164649Y-84729366D02*
X157197983Y-84796033D01*
X157197983Y-84796033D02*
X157264649Y-84862700D01*
X157264649Y-84862700D02*
X157364649Y-84896033D01*
X157364649Y-84896033D02*
X157431316Y-84896033D01*
X157431316Y-84896033D02*
X157531316Y-84862700D01*
X157531316Y-84862700D02*
X157564649Y-84829366D01*
X157564649Y-84829366D02*
X157564649Y-84596033D01*
X157564649Y-84596033D02*
X157431316Y-84596033D01*
X157864649Y-84896033D02*
X157864649Y-84196033D01*
X157864649Y-84196033D02*
X158131316Y-84196033D01*
X158131316Y-84196033D02*
X158197983Y-84229366D01*
X158197983Y-84229366D02*
X158231316Y-84262700D01*
X158231316Y-84262700D02*
X158264649Y-84329366D01*
X158264649Y-84329366D02*
X158264649Y-84429366D01*
X158264649Y-84429366D02*
X158231316Y-84496033D01*
X158231316Y-84496033D02*
X158197983Y-84529366D01*
X158197983Y-84529366D02*
X158131316Y-84562700D01*
X158131316Y-84562700D02*
X157864649Y-84562700D01*
X158564649Y-84896033D02*
X158564649Y-84196033D01*
X159031316Y-84196033D02*
X159164649Y-84196033D01*
X159164649Y-84196033D02*
X159231316Y-84229366D01*
X159231316Y-84229366D02*
X159297982Y-84296033D01*
X159297982Y-84296033D02*
X159331316Y-84429366D01*
X159331316Y-84429366D02*
X159331316Y-84662700D01*
X159331316Y-84662700D02*
X159297982Y-84796033D01*
X159297982Y-84796033D02*
X159231316Y-84862700D01*
X159231316Y-84862700D02*
X159164649Y-84896033D01*
X159164649Y-84896033D02*
X159031316Y-84896033D01*
X159031316Y-84896033D02*
X158964649Y-84862700D01*
X158964649Y-84862700D02*
X158897982Y-84796033D01*
X158897982Y-84796033D02*
X158864649Y-84662700D01*
X158864649Y-84662700D02*
X158864649Y-84429366D01*
X158864649Y-84429366D02*
X158897982Y-84296033D01*
X158897982Y-84296033D02*
X158964649Y-84229366D01*
X158964649Y-84229366D02*
X159031316Y-84196033D01*
X159964649Y-84196033D02*
X159631315Y-84196033D01*
X159631315Y-84196033D02*
X159597982Y-84529366D01*
X159597982Y-84529366D02*
X159631315Y-84496033D01*
X159631315Y-84496033D02*
X159697982Y-84462700D01*
X159697982Y-84462700D02*
X159864649Y-84462700D01*
X159864649Y-84462700D02*
X159931315Y-84496033D01*
X159931315Y-84496033D02*
X159964649Y-84529366D01*
X159964649Y-84529366D02*
X159997982Y-84596033D01*
X159997982Y-84596033D02*
X159997982Y-84762700D01*
X159997982Y-84762700D02*
X159964649Y-84829366D01*
X159964649Y-84829366D02*
X159931315Y-84862700D01*
X159931315Y-84862700D02*
X159864649Y-84896033D01*
X159864649Y-84896033D02*
X159697982Y-84896033D01*
X159697982Y-84896033D02*
X159631315Y-84862700D01*
X159631315Y-84862700D02*
X159597982Y-84829366D01*
X156864649Y-86769366D02*
X156797982Y-86736033D01*
X156797982Y-86736033D02*
X156697982Y-86736033D01*
X156697982Y-86736033D02*
X156597982Y-86769366D01*
X156597982Y-86769366D02*
X156531316Y-86836033D01*
X156531316Y-86836033D02*
X156497982Y-86902700D01*
X156497982Y-86902700D02*
X156464649Y-87036033D01*
X156464649Y-87036033D02*
X156464649Y-87136033D01*
X156464649Y-87136033D02*
X156497982Y-87269366D01*
X156497982Y-87269366D02*
X156531316Y-87336033D01*
X156531316Y-87336033D02*
X156597982Y-87402700D01*
X156597982Y-87402700D02*
X156697982Y-87436033D01*
X156697982Y-87436033D02*
X156764649Y-87436033D01*
X156764649Y-87436033D02*
X156864649Y-87402700D01*
X156864649Y-87402700D02*
X156897982Y-87369366D01*
X156897982Y-87369366D02*
X156897982Y-87136033D01*
X156897982Y-87136033D02*
X156764649Y-87136033D01*
X157197982Y-87436033D02*
X157197982Y-86736033D01*
X157197982Y-86736033D02*
X157464649Y-86736033D01*
X157464649Y-86736033D02*
X157531316Y-86769366D01*
X157531316Y-86769366D02*
X157564649Y-86802700D01*
X157564649Y-86802700D02*
X157597982Y-86869366D01*
X157597982Y-86869366D02*
X157597982Y-86969366D01*
X157597982Y-86969366D02*
X157564649Y-87036033D01*
X157564649Y-87036033D02*
X157531316Y-87069366D01*
X157531316Y-87069366D02*
X157464649Y-87102700D01*
X157464649Y-87102700D02*
X157197982Y-87102700D01*
X157897982Y-87436033D02*
X157897982Y-86736033D01*
X158364649Y-86736033D02*
X158497982Y-86736033D01*
X158497982Y-86736033D02*
X158564649Y-86769366D01*
X158564649Y-86769366D02*
X158631315Y-86836033D01*
X158631315Y-86836033D02*
X158664649Y-86969366D01*
X158664649Y-86969366D02*
X158664649Y-87202700D01*
X158664649Y-87202700D02*
X158631315Y-87336033D01*
X158631315Y-87336033D02*
X158564649Y-87402700D01*
X158564649Y-87402700D02*
X158497982Y-87436033D01*
X158497982Y-87436033D02*
X158364649Y-87436033D01*
X158364649Y-87436033D02*
X158297982Y-87402700D01*
X158297982Y-87402700D02*
X158231315Y-87336033D01*
X158231315Y-87336033D02*
X158197982Y-87202700D01*
X158197982Y-87202700D02*
X158197982Y-86969366D01*
X158197982Y-86969366D02*
X158231315Y-86836033D01*
X158231315Y-86836033D02*
X158297982Y-86769366D01*
X158297982Y-86769366D02*
X158364649Y-86736033D01*
X159331315Y-87436033D02*
X158931315Y-87436033D01*
X159131315Y-87436033D02*
X159131315Y-86736033D01*
X159131315Y-86736033D02*
X159064648Y-86836033D01*
X159064648Y-86836033D02*
X158997982Y-86902700D01*
X158997982Y-86902700D02*
X158931315Y-86936033D01*
X159564649Y-86736033D02*
X160031315Y-86736033D01*
X160031315Y-86736033D02*
X159731315Y-87436033D01*
X156864649Y-89309366D02*
X156797982Y-89276033D01*
X156797982Y-89276033D02*
X156697982Y-89276033D01*
X156697982Y-89276033D02*
X156597982Y-89309366D01*
X156597982Y-89309366D02*
X156531316Y-89376033D01*
X156531316Y-89376033D02*
X156497982Y-89442700D01*
X156497982Y-89442700D02*
X156464649Y-89576033D01*
X156464649Y-89576033D02*
X156464649Y-89676033D01*
X156464649Y-89676033D02*
X156497982Y-89809366D01*
X156497982Y-89809366D02*
X156531316Y-89876033D01*
X156531316Y-89876033D02*
X156597982Y-89942700D01*
X156597982Y-89942700D02*
X156697982Y-89976033D01*
X156697982Y-89976033D02*
X156764649Y-89976033D01*
X156764649Y-89976033D02*
X156864649Y-89942700D01*
X156864649Y-89942700D02*
X156897982Y-89909366D01*
X156897982Y-89909366D02*
X156897982Y-89676033D01*
X156897982Y-89676033D02*
X156764649Y-89676033D01*
X157197982Y-89976033D02*
X157197982Y-89276033D01*
X157197982Y-89276033D02*
X157464649Y-89276033D01*
X157464649Y-89276033D02*
X157531316Y-89309366D01*
X157531316Y-89309366D02*
X157564649Y-89342700D01*
X157564649Y-89342700D02*
X157597982Y-89409366D01*
X157597982Y-89409366D02*
X157597982Y-89509366D01*
X157597982Y-89509366D02*
X157564649Y-89576033D01*
X157564649Y-89576033D02*
X157531316Y-89609366D01*
X157531316Y-89609366D02*
X157464649Y-89642700D01*
X157464649Y-89642700D02*
X157197982Y-89642700D01*
X157897982Y-89976033D02*
X157897982Y-89276033D01*
X158364649Y-89276033D02*
X158497982Y-89276033D01*
X158497982Y-89276033D02*
X158564649Y-89309366D01*
X158564649Y-89309366D02*
X158631315Y-89376033D01*
X158631315Y-89376033D02*
X158664649Y-89509366D01*
X158664649Y-89509366D02*
X158664649Y-89742700D01*
X158664649Y-89742700D02*
X158631315Y-89876033D01*
X158631315Y-89876033D02*
X158564649Y-89942700D01*
X158564649Y-89942700D02*
X158497982Y-89976033D01*
X158497982Y-89976033D02*
X158364649Y-89976033D01*
X158364649Y-89976033D02*
X158297982Y-89942700D01*
X158297982Y-89942700D02*
X158231315Y-89876033D01*
X158231315Y-89876033D02*
X158197982Y-89742700D01*
X158197982Y-89742700D02*
X158197982Y-89509366D01*
X158197982Y-89509366D02*
X158231315Y-89376033D01*
X158231315Y-89376033D02*
X158297982Y-89309366D01*
X158297982Y-89309366D02*
X158364649Y-89276033D01*
X159331315Y-89976033D02*
X158931315Y-89976033D01*
X159131315Y-89976033D02*
X159131315Y-89276033D01*
X159131315Y-89276033D02*
X159064648Y-89376033D01*
X159064648Y-89376033D02*
X158997982Y-89442700D01*
X158997982Y-89442700D02*
X158931315Y-89476033D01*
X159931315Y-89276033D02*
X159797982Y-89276033D01*
X159797982Y-89276033D02*
X159731315Y-89309366D01*
X159731315Y-89309366D02*
X159697982Y-89342700D01*
X159697982Y-89342700D02*
X159631315Y-89442700D01*
X159631315Y-89442700D02*
X159597982Y-89576033D01*
X159597982Y-89576033D02*
X159597982Y-89842700D01*
X159597982Y-89842700D02*
X159631315Y-89909366D01*
X159631315Y-89909366D02*
X159664649Y-89942700D01*
X159664649Y-89942700D02*
X159731315Y-89976033D01*
X159731315Y-89976033D02*
X159864649Y-89976033D01*
X159864649Y-89976033D02*
X159931315Y-89942700D01*
X159931315Y-89942700D02*
X159964649Y-89909366D01*
X159964649Y-89909366D02*
X159997982Y-89842700D01*
X159997982Y-89842700D02*
X159997982Y-89676033D01*
X159997982Y-89676033D02*
X159964649Y-89609366D01*
X159964649Y-89609366D02*
X159931315Y-89576033D01*
X159931315Y-89576033D02*
X159864649Y-89542700D01*
X159864649Y-89542700D02*
X159731315Y-89542700D01*
X159731315Y-89542700D02*
X159664649Y-89576033D01*
X159664649Y-89576033D02*
X159631315Y-89609366D01*
X159631315Y-89609366D02*
X159597982Y-89676033D01*
X157531316Y-91849366D02*
X157464649Y-91816033D01*
X157464649Y-91816033D02*
X157364649Y-91816033D01*
X157364649Y-91816033D02*
X157264649Y-91849366D01*
X157264649Y-91849366D02*
X157197983Y-91916033D01*
X157197983Y-91916033D02*
X157164649Y-91982700D01*
X157164649Y-91982700D02*
X157131316Y-92116033D01*
X157131316Y-92116033D02*
X157131316Y-92216033D01*
X157131316Y-92216033D02*
X157164649Y-92349366D01*
X157164649Y-92349366D02*
X157197983Y-92416033D01*
X157197983Y-92416033D02*
X157264649Y-92482700D01*
X157264649Y-92482700D02*
X157364649Y-92516033D01*
X157364649Y-92516033D02*
X157431316Y-92516033D01*
X157431316Y-92516033D02*
X157531316Y-92482700D01*
X157531316Y-92482700D02*
X157564649Y-92449366D01*
X157564649Y-92449366D02*
X157564649Y-92216033D01*
X157564649Y-92216033D02*
X157431316Y-92216033D01*
X157864649Y-92516033D02*
X157864649Y-91816033D01*
X157864649Y-91816033D02*
X158131316Y-91816033D01*
X158131316Y-91816033D02*
X158197983Y-91849366D01*
X158197983Y-91849366D02*
X158231316Y-91882700D01*
X158231316Y-91882700D02*
X158264649Y-91949366D01*
X158264649Y-91949366D02*
X158264649Y-92049366D01*
X158264649Y-92049366D02*
X158231316Y-92116033D01*
X158231316Y-92116033D02*
X158197983Y-92149366D01*
X158197983Y-92149366D02*
X158131316Y-92182700D01*
X158131316Y-92182700D02*
X157864649Y-92182700D01*
X158564649Y-92516033D02*
X158564649Y-91816033D01*
X159031316Y-91816033D02*
X159164649Y-91816033D01*
X159164649Y-91816033D02*
X159231316Y-91849366D01*
X159231316Y-91849366D02*
X159297982Y-91916033D01*
X159297982Y-91916033D02*
X159331316Y-92049366D01*
X159331316Y-92049366D02*
X159331316Y-92282700D01*
X159331316Y-92282700D02*
X159297982Y-92416033D01*
X159297982Y-92416033D02*
X159231316Y-92482700D01*
X159231316Y-92482700D02*
X159164649Y-92516033D01*
X159164649Y-92516033D02*
X159031316Y-92516033D01*
X159031316Y-92516033D02*
X158964649Y-92482700D01*
X158964649Y-92482700D02*
X158897982Y-92416033D01*
X158897982Y-92416033D02*
X158864649Y-92282700D01*
X158864649Y-92282700D02*
X158864649Y-92049366D01*
X158864649Y-92049366D02*
X158897982Y-91916033D01*
X158897982Y-91916033D02*
X158964649Y-91849366D01*
X158964649Y-91849366D02*
X159031316Y-91816033D01*
X159931315Y-92049366D02*
X159931315Y-92516033D01*
X159764649Y-91782700D02*
X159597982Y-92282700D01*
X159597982Y-92282700D02*
X160031315Y-92282700D01*
X157531316Y-94389366D02*
X157464649Y-94356033D01*
X157464649Y-94356033D02*
X157364649Y-94356033D01*
X157364649Y-94356033D02*
X157264649Y-94389366D01*
X157264649Y-94389366D02*
X157197983Y-94456033D01*
X157197983Y-94456033D02*
X157164649Y-94522700D01*
X157164649Y-94522700D02*
X157131316Y-94656033D01*
X157131316Y-94656033D02*
X157131316Y-94756033D01*
X157131316Y-94756033D02*
X157164649Y-94889366D01*
X157164649Y-94889366D02*
X157197983Y-94956033D01*
X157197983Y-94956033D02*
X157264649Y-95022700D01*
X157264649Y-95022700D02*
X157364649Y-95056033D01*
X157364649Y-95056033D02*
X157431316Y-95056033D01*
X157431316Y-95056033D02*
X157531316Y-95022700D01*
X157531316Y-95022700D02*
X157564649Y-94989366D01*
X157564649Y-94989366D02*
X157564649Y-94756033D01*
X157564649Y-94756033D02*
X157431316Y-94756033D01*
X157864649Y-95056033D02*
X157864649Y-94356033D01*
X157864649Y-94356033D02*
X158131316Y-94356033D01*
X158131316Y-94356033D02*
X158197983Y-94389366D01*
X158197983Y-94389366D02*
X158231316Y-94422700D01*
X158231316Y-94422700D02*
X158264649Y-94489366D01*
X158264649Y-94489366D02*
X158264649Y-94589366D01*
X158264649Y-94589366D02*
X158231316Y-94656033D01*
X158231316Y-94656033D02*
X158197983Y-94689366D01*
X158197983Y-94689366D02*
X158131316Y-94722700D01*
X158131316Y-94722700D02*
X157864649Y-94722700D01*
X158564649Y-95056033D02*
X158564649Y-94356033D01*
X159031316Y-94356033D02*
X159164649Y-94356033D01*
X159164649Y-94356033D02*
X159231316Y-94389366D01*
X159231316Y-94389366D02*
X159297982Y-94456033D01*
X159297982Y-94456033D02*
X159331316Y-94589366D01*
X159331316Y-94589366D02*
X159331316Y-94822700D01*
X159331316Y-94822700D02*
X159297982Y-94956033D01*
X159297982Y-94956033D02*
X159231316Y-95022700D01*
X159231316Y-95022700D02*
X159164649Y-95056033D01*
X159164649Y-95056033D02*
X159031316Y-95056033D01*
X159031316Y-95056033D02*
X158964649Y-95022700D01*
X158964649Y-95022700D02*
X158897982Y-94956033D01*
X158897982Y-94956033D02*
X158864649Y-94822700D01*
X158864649Y-94822700D02*
X158864649Y-94589366D01*
X158864649Y-94589366D02*
X158897982Y-94456033D01*
X158897982Y-94456033D02*
X158964649Y-94389366D01*
X158964649Y-94389366D02*
X159031316Y-94356033D01*
X159764649Y-94356033D02*
X159831315Y-94356033D01*
X159831315Y-94356033D02*
X159897982Y-94389366D01*
X159897982Y-94389366D02*
X159931315Y-94422700D01*
X159931315Y-94422700D02*
X159964649Y-94489366D01*
X159964649Y-94489366D02*
X159997982Y-94622700D01*
X159997982Y-94622700D02*
X159997982Y-94789366D01*
X159997982Y-94789366D02*
X159964649Y-94922700D01*
X159964649Y-94922700D02*
X159931315Y-94989366D01*
X159931315Y-94989366D02*
X159897982Y-95022700D01*
X159897982Y-95022700D02*
X159831315Y-95056033D01*
X159831315Y-95056033D02*
X159764649Y-95056033D01*
X159764649Y-95056033D02*
X159697982Y-95022700D01*
X159697982Y-95022700D02*
X159664649Y-94989366D01*
X159664649Y-94989366D02*
X159631315Y-94922700D01*
X159631315Y-94922700D02*
X159597982Y-94789366D01*
X159597982Y-94789366D02*
X159597982Y-94622700D01*
X159597982Y-94622700D02*
X159631315Y-94489366D01*
X159631315Y-94489366D02*
X159664649Y-94422700D01*
X159664649Y-94422700D02*
X159697982Y-94389366D01*
X159697982Y-94389366D02*
X159764649Y-94356033D01*
X157531316Y-96929366D02*
X157464649Y-96896033D01*
X157464649Y-96896033D02*
X157364649Y-96896033D01*
X157364649Y-96896033D02*
X157264649Y-96929366D01*
X157264649Y-96929366D02*
X157197983Y-96996033D01*
X157197983Y-96996033D02*
X157164649Y-97062700D01*
X157164649Y-97062700D02*
X157131316Y-97196033D01*
X157131316Y-97196033D02*
X157131316Y-97296033D01*
X157131316Y-97296033D02*
X157164649Y-97429366D01*
X157164649Y-97429366D02*
X157197983Y-97496033D01*
X157197983Y-97496033D02*
X157264649Y-97562700D01*
X157264649Y-97562700D02*
X157364649Y-97596033D01*
X157364649Y-97596033D02*
X157431316Y-97596033D01*
X157431316Y-97596033D02*
X157531316Y-97562700D01*
X157531316Y-97562700D02*
X157564649Y-97529366D01*
X157564649Y-97529366D02*
X157564649Y-97296033D01*
X157564649Y-97296033D02*
X157431316Y-97296033D01*
X157864649Y-97596033D02*
X157864649Y-96896033D01*
X157864649Y-96896033D02*
X158131316Y-96896033D01*
X158131316Y-96896033D02*
X158197983Y-96929366D01*
X158197983Y-96929366D02*
X158231316Y-96962700D01*
X158231316Y-96962700D02*
X158264649Y-97029366D01*
X158264649Y-97029366D02*
X158264649Y-97129366D01*
X158264649Y-97129366D02*
X158231316Y-97196033D01*
X158231316Y-97196033D02*
X158197983Y-97229366D01*
X158197983Y-97229366D02*
X158131316Y-97262700D01*
X158131316Y-97262700D02*
X157864649Y-97262700D01*
X158564649Y-97596033D02*
X158564649Y-96896033D01*
X159031316Y-96896033D02*
X159164649Y-96896033D01*
X159164649Y-96896033D02*
X159231316Y-96929366D01*
X159231316Y-96929366D02*
X159297982Y-96996033D01*
X159297982Y-96996033D02*
X159331316Y-97129366D01*
X159331316Y-97129366D02*
X159331316Y-97362700D01*
X159331316Y-97362700D02*
X159297982Y-97496033D01*
X159297982Y-97496033D02*
X159231316Y-97562700D01*
X159231316Y-97562700D02*
X159164649Y-97596033D01*
X159164649Y-97596033D02*
X159031316Y-97596033D01*
X159031316Y-97596033D02*
X158964649Y-97562700D01*
X158964649Y-97562700D02*
X158897982Y-97496033D01*
X158897982Y-97496033D02*
X158864649Y-97362700D01*
X158864649Y-97362700D02*
X158864649Y-97129366D01*
X158864649Y-97129366D02*
X158897982Y-96996033D01*
X158897982Y-96996033D02*
X158964649Y-96929366D01*
X158964649Y-96929366D02*
X159031316Y-96896033D01*
X159597982Y-96962700D02*
X159631315Y-96929366D01*
X159631315Y-96929366D02*
X159697982Y-96896033D01*
X159697982Y-96896033D02*
X159864649Y-96896033D01*
X159864649Y-96896033D02*
X159931315Y-96929366D01*
X159931315Y-96929366D02*
X159964649Y-96962700D01*
X159964649Y-96962700D02*
X159997982Y-97029366D01*
X159997982Y-97029366D02*
X159997982Y-97096033D01*
X159997982Y-97096033D02*
X159964649Y-97196033D01*
X159964649Y-97196033D02*
X159564649Y-97596033D01*
X159564649Y-97596033D02*
X159997982Y-97596033D01*
X153364650Y-99469366D02*
X153297983Y-99436033D01*
X153297983Y-99436033D02*
X153197983Y-99436033D01*
X153197983Y-99436033D02*
X153097983Y-99469366D01*
X153097983Y-99469366D02*
X153031317Y-99536033D01*
X153031317Y-99536033D02*
X152997983Y-99602700D01*
X152997983Y-99602700D02*
X152964650Y-99736033D01*
X152964650Y-99736033D02*
X152964650Y-99836033D01*
X152964650Y-99836033D02*
X152997983Y-99969366D01*
X152997983Y-99969366D02*
X153031317Y-100036033D01*
X153031317Y-100036033D02*
X153097983Y-100102700D01*
X153097983Y-100102700D02*
X153197983Y-100136033D01*
X153197983Y-100136033D02*
X153264650Y-100136033D01*
X153264650Y-100136033D02*
X153364650Y-100102700D01*
X153364650Y-100102700D02*
X153397983Y-100069366D01*
X153397983Y-100069366D02*
X153397983Y-99836033D01*
X153397983Y-99836033D02*
X153264650Y-99836033D01*
X153697983Y-100136033D02*
X153697983Y-99436033D01*
X153697983Y-99436033D02*
X153964650Y-99436033D01*
X153964650Y-99436033D02*
X154031317Y-99469366D01*
X154031317Y-99469366D02*
X154064650Y-99502700D01*
X154064650Y-99502700D02*
X154097983Y-99569366D01*
X154097983Y-99569366D02*
X154097983Y-99669366D01*
X154097983Y-99669366D02*
X154064650Y-99736033D01*
X154064650Y-99736033D02*
X154031317Y-99769366D01*
X154031317Y-99769366D02*
X153964650Y-99802700D01*
X153964650Y-99802700D02*
X153697983Y-99802700D01*
X154397983Y-100136033D02*
X154397983Y-99436033D01*
X154864650Y-99436033D02*
X154997983Y-99436033D01*
X154997983Y-99436033D02*
X155064650Y-99469366D01*
X155064650Y-99469366D02*
X155131316Y-99536033D01*
X155131316Y-99536033D02*
X155164650Y-99669366D01*
X155164650Y-99669366D02*
X155164650Y-99902700D01*
X155164650Y-99902700D02*
X155131316Y-100036033D01*
X155131316Y-100036033D02*
X155064650Y-100102700D01*
X155064650Y-100102700D02*
X154997983Y-100136033D01*
X154997983Y-100136033D02*
X154864650Y-100136033D01*
X154864650Y-100136033D02*
X154797983Y-100102700D01*
X154797983Y-100102700D02*
X154731316Y-100036033D01*
X154731316Y-100036033D02*
X154697983Y-99902700D01*
X154697983Y-99902700D02*
X154697983Y-99669366D01*
X154697983Y-99669366D02*
X154731316Y-99536033D01*
X154731316Y-99536033D02*
X154797983Y-99469366D01*
X154797983Y-99469366D02*
X154864650Y-99436033D01*
X155831316Y-100136033D02*
X155431316Y-100136033D01*
X155631316Y-100136033D02*
X155631316Y-99436033D01*
X155631316Y-99436033D02*
X155564649Y-99536033D01*
X155564649Y-99536033D02*
X155497983Y-99602700D01*
X155497983Y-99602700D02*
X155431316Y-99636033D01*
X156464650Y-99436033D02*
X156131316Y-99436033D01*
X156131316Y-99436033D02*
X156097983Y-99769366D01*
X156097983Y-99769366D02*
X156131316Y-99736033D01*
X156131316Y-99736033D02*
X156197983Y-99702700D01*
X156197983Y-99702700D02*
X156364650Y-99702700D01*
X156364650Y-99702700D02*
X156431316Y-99736033D01*
X156431316Y-99736033D02*
X156464650Y-99769366D01*
X156464650Y-99769366D02*
X156497983Y-99836033D01*
X156497983Y-99836033D02*
X156497983Y-100002700D01*
X156497983Y-100002700D02*
X156464650Y-100069366D01*
X156464650Y-100069366D02*
X156431316Y-100102700D01*
X156431316Y-100102700D02*
X156364650Y-100136033D01*
X156364650Y-100136033D02*
X156197983Y-100136033D01*
X156197983Y-100136033D02*
X156131316Y-100102700D01*
X156131316Y-100102700D02*
X156097983Y-100069366D01*
X157297983Y-99402700D02*
X156697983Y-100302700D01*
X157531316Y-100136033D02*
X157531316Y-99436033D01*
X157531316Y-99436033D02*
X157764650Y-99936033D01*
X157764650Y-99936033D02*
X157997983Y-99436033D01*
X157997983Y-99436033D02*
X157997983Y-100136033D01*
X158231316Y-99436033D02*
X158631316Y-99436033D01*
X158431316Y-100136033D02*
X158431316Y-99436033D01*
X158864649Y-100136033D02*
X158864649Y-99436033D01*
X158864649Y-99436033D02*
X159031316Y-99436033D01*
X159031316Y-99436033D02*
X159131316Y-99469366D01*
X159131316Y-99469366D02*
X159197983Y-99536033D01*
X159197983Y-99536033D02*
X159231316Y-99602700D01*
X159231316Y-99602700D02*
X159264649Y-99736033D01*
X159264649Y-99736033D02*
X159264649Y-99836033D01*
X159264649Y-99836033D02*
X159231316Y-99969366D01*
X159231316Y-99969366D02*
X159197983Y-100036033D01*
X159197983Y-100036033D02*
X159131316Y-100102700D01*
X159131316Y-100102700D02*
X159031316Y-100136033D01*
X159031316Y-100136033D02*
X158864649Y-100136033D01*
X159697983Y-99436033D02*
X159831316Y-99436033D01*
X159831316Y-99436033D02*
X159897983Y-99469366D01*
X159897983Y-99469366D02*
X159964649Y-99536033D01*
X159964649Y-99536033D02*
X159997983Y-99669366D01*
X159997983Y-99669366D02*
X159997983Y-99902700D01*
X159997983Y-99902700D02*
X159964649Y-100036033D01*
X159964649Y-100036033D02*
X159897983Y-100102700D01*
X159897983Y-100102700D02*
X159831316Y-100136033D01*
X159831316Y-100136033D02*
X159697983Y-100136033D01*
X159697983Y-100136033D02*
X159631316Y-100102700D01*
X159631316Y-100102700D02*
X159564649Y-100036033D01*
X159564649Y-100036033D02*
X159531316Y-99902700D01*
X159531316Y-99902700D02*
X159531316Y-99669366D01*
X159531316Y-99669366D02*
X159564649Y-99536033D01*
X159564649Y-99536033D02*
X159631316Y-99469366D01*
X159631316Y-99469366D02*
X159697983Y-99436033D01*
X158931315Y-102676033D02*
X158931315Y-101976033D01*
X158931315Y-101976033D02*
X159097982Y-101976033D01*
X159097982Y-101976033D02*
X159197982Y-102009366D01*
X159197982Y-102009366D02*
X159264649Y-102076033D01*
X159264649Y-102076033D02*
X159297982Y-102142700D01*
X159297982Y-102142700D02*
X159331315Y-102276033D01*
X159331315Y-102276033D02*
X159331315Y-102376033D01*
X159331315Y-102376033D02*
X159297982Y-102509366D01*
X159297982Y-102509366D02*
X159264649Y-102576033D01*
X159264649Y-102576033D02*
X159197982Y-102642700D01*
X159197982Y-102642700D02*
X159097982Y-102676033D01*
X159097982Y-102676033D02*
X158931315Y-102676033D01*
X159997982Y-102676033D02*
X159597982Y-102676033D01*
X159797982Y-102676033D02*
X159797982Y-101976033D01*
X159797982Y-101976033D02*
X159731315Y-102076033D01*
X159731315Y-102076033D02*
X159664649Y-102142700D01*
X159664649Y-102142700D02*
X159597982Y-102176033D01*
X158931315Y-105216033D02*
X158931315Y-104516033D01*
X158931315Y-104516033D02*
X159097982Y-104516033D01*
X159097982Y-104516033D02*
X159197982Y-104549366D01*
X159197982Y-104549366D02*
X159264649Y-104616033D01*
X159264649Y-104616033D02*
X159297982Y-104682700D01*
X159297982Y-104682700D02*
X159331315Y-104816033D01*
X159331315Y-104816033D02*
X159331315Y-104916033D01*
X159331315Y-104916033D02*
X159297982Y-105049366D01*
X159297982Y-105049366D02*
X159264649Y-105116033D01*
X159264649Y-105116033D02*
X159197982Y-105182700D01*
X159197982Y-105182700D02*
X159097982Y-105216033D01*
X159097982Y-105216033D02*
X158931315Y-105216033D01*
X159764649Y-104516033D02*
X159831315Y-104516033D01*
X159831315Y-104516033D02*
X159897982Y-104549366D01*
X159897982Y-104549366D02*
X159931315Y-104582700D01*
X159931315Y-104582700D02*
X159964649Y-104649366D01*
X159964649Y-104649366D02*
X159997982Y-104782700D01*
X159997982Y-104782700D02*
X159997982Y-104949366D01*
X159997982Y-104949366D02*
X159964649Y-105082700D01*
X159964649Y-105082700D02*
X159931315Y-105149366D01*
X159931315Y-105149366D02*
X159897982Y-105182700D01*
X159897982Y-105182700D02*
X159831315Y-105216033D01*
X159831315Y-105216033D02*
X159764649Y-105216033D01*
X159764649Y-105216033D02*
X159697982Y-105182700D01*
X159697982Y-105182700D02*
X159664649Y-105149366D01*
X159664649Y-105149366D02*
X159631315Y-105082700D01*
X159631315Y-105082700D02*
X159597982Y-104949366D01*
X159597982Y-104949366D02*
X159597982Y-104782700D01*
X159597982Y-104782700D02*
X159631315Y-104649366D01*
X159631315Y-104649366D02*
X159664649Y-104582700D01*
X159664649Y-104582700D02*
X159697982Y-104549366D01*
X159697982Y-104549366D02*
X159764649Y-104516033D01*
X158731315Y-107689366D02*
X158697982Y-107722700D01*
X158697982Y-107722700D02*
X158597982Y-107756033D01*
X158597982Y-107756033D02*
X158531315Y-107756033D01*
X158531315Y-107756033D02*
X158431315Y-107722700D01*
X158431315Y-107722700D02*
X158364649Y-107656033D01*
X158364649Y-107656033D02*
X158331315Y-107589366D01*
X158331315Y-107589366D02*
X158297982Y-107456033D01*
X158297982Y-107456033D02*
X158297982Y-107356033D01*
X158297982Y-107356033D02*
X158331315Y-107222700D01*
X158331315Y-107222700D02*
X158364649Y-107156033D01*
X158364649Y-107156033D02*
X158431315Y-107089366D01*
X158431315Y-107089366D02*
X158531315Y-107056033D01*
X158531315Y-107056033D02*
X158597982Y-107056033D01*
X158597982Y-107056033D02*
X158697982Y-107089366D01*
X158697982Y-107089366D02*
X158731315Y-107122700D01*
X159364649Y-107756033D02*
X159031315Y-107756033D01*
X159031315Y-107756033D02*
X159031315Y-107056033D01*
X159597982Y-107756033D02*
X159597982Y-107056033D01*
X159997982Y-107756033D02*
X159697982Y-107356033D01*
X159997982Y-107056033D02*
X159597982Y-107456033D01*
X170954819Y-75761904D02*
X169954819Y-75761904D01*
X170431009Y-75761904D02*
X170431009Y-75190476D01*
X170954819Y-75190476D02*
X169954819Y-75190476D01*
X170859580Y-74142857D02*
X170907200Y-74190476D01*
X170907200Y-74190476D02*
X170954819Y-74333333D01*
X170954819Y-74333333D02*
X170954819Y-74428571D01*
X170954819Y-74428571D02*
X170907200Y-74571428D01*
X170907200Y-74571428D02*
X170811961Y-74666666D01*
X170811961Y-74666666D02*
X170716723Y-74714285D01*
X170716723Y-74714285D02*
X170526247Y-74761904D01*
X170526247Y-74761904D02*
X170383390Y-74761904D01*
X170383390Y-74761904D02*
X170192914Y-74714285D01*
X170192914Y-74714285D02*
X170097676Y-74666666D01*
X170097676Y-74666666D02*
X170002438Y-74571428D01*
X170002438Y-74571428D02*
X169954819Y-74428571D01*
X169954819Y-74428571D02*
X169954819Y-74333333D01*
X169954819Y-74333333D02*
X170002438Y-74190476D01*
X170002438Y-74190476D02*
X170050057Y-74142857D01*
X170573866Y-73714285D02*
X170573866Y-72952381D01*
X170907200Y-72523809D02*
X170954819Y-72380952D01*
X170954819Y-72380952D02*
X170954819Y-72142857D01*
X170954819Y-72142857D02*
X170907200Y-72047619D01*
X170907200Y-72047619D02*
X170859580Y-72000000D01*
X170859580Y-72000000D02*
X170764342Y-71952381D01*
X170764342Y-71952381D02*
X170669104Y-71952381D01*
X170669104Y-71952381D02*
X170573866Y-72000000D01*
X170573866Y-72000000D02*
X170526247Y-72047619D01*
X170526247Y-72047619D02*
X170478628Y-72142857D01*
X170478628Y-72142857D02*
X170431009Y-72333333D01*
X170431009Y-72333333D02*
X170383390Y-72428571D01*
X170383390Y-72428571D02*
X170335771Y-72476190D01*
X170335771Y-72476190D02*
X170240533Y-72523809D01*
X170240533Y-72523809D02*
X170145295Y-72523809D01*
X170145295Y-72523809D02*
X170050057Y-72476190D01*
X170050057Y-72476190D02*
X170002438Y-72428571D01*
X170002438Y-72428571D02*
X169954819Y-72333333D01*
X169954819Y-72333333D02*
X169954819Y-72095238D01*
X169954819Y-72095238D02*
X170002438Y-71952381D01*
X170954819Y-70952381D02*
X170478628Y-71285714D01*
X170954819Y-71523809D02*
X169954819Y-71523809D01*
X169954819Y-71523809D02*
X169954819Y-71142857D01*
X169954819Y-71142857D02*
X170002438Y-71047619D01*
X170002438Y-71047619D02*
X170050057Y-71000000D01*
X170050057Y-71000000D02*
X170145295Y-70952381D01*
X170145295Y-70952381D02*
X170288152Y-70952381D01*
X170288152Y-70952381D02*
X170383390Y-71000000D01*
X170383390Y-71000000D02*
X170431009Y-71047619D01*
X170431009Y-71047619D02*
X170478628Y-71142857D01*
X170478628Y-71142857D02*
X170478628Y-71523809D01*
X169954819Y-70333333D02*
X169954819Y-70238095D01*
X169954819Y-70238095D02*
X170002438Y-70142857D01*
X170002438Y-70142857D02*
X170050057Y-70095238D01*
X170050057Y-70095238D02*
X170145295Y-70047619D01*
X170145295Y-70047619D02*
X170335771Y-70000000D01*
X170335771Y-70000000D02*
X170573866Y-70000000D01*
X170573866Y-70000000D02*
X170764342Y-70047619D01*
X170764342Y-70047619D02*
X170859580Y-70095238D01*
X170859580Y-70095238D02*
X170907200Y-70142857D01*
X170907200Y-70142857D02*
X170954819Y-70238095D01*
X170954819Y-70238095D02*
X170954819Y-70333333D01*
X170954819Y-70333333D02*
X170907200Y-70428571D01*
X170907200Y-70428571D02*
X170859580Y-70476190D01*
X170859580Y-70476190D02*
X170764342Y-70523809D01*
X170764342Y-70523809D02*
X170573866Y-70571428D01*
X170573866Y-70571428D02*
X170335771Y-70571428D01*
X170335771Y-70571428D02*
X170145295Y-70523809D01*
X170145295Y-70523809D02*
X170050057Y-70476190D01*
X170050057Y-70476190D02*
X170002438Y-70428571D01*
X170002438Y-70428571D02*
X169954819Y-70333333D01*
X170288152Y-69142857D02*
X170954819Y-69142857D01*
X169907200Y-69380952D02*
X170621485Y-69619047D01*
X170621485Y-69619047D02*
X170621485Y-69000000D01*
X171050057Y-68857143D02*
X171050057Y-68095238D01*
X170859580Y-67285714D02*
X170907200Y-67333333D01*
X170907200Y-67333333D02*
X170954819Y-67476190D01*
X170954819Y-67476190D02*
X170954819Y-67571428D01*
X170954819Y-67571428D02*
X170907200Y-67714285D01*
X170907200Y-67714285D02*
X170811961Y-67809523D01*
X170811961Y-67809523D02*
X170716723Y-67857142D01*
X170716723Y-67857142D02*
X170526247Y-67904761D01*
X170526247Y-67904761D02*
X170383390Y-67904761D01*
X170383390Y-67904761D02*
X170192914Y-67857142D01*
X170192914Y-67857142D02*
X170097676Y-67809523D01*
X170097676Y-67809523D02*
X170002438Y-67714285D01*
X170002438Y-67714285D02*
X169954819Y-67571428D01*
X169954819Y-67571428D02*
X169954819Y-67476190D01*
X169954819Y-67476190D02*
X170002438Y-67333333D01*
X170002438Y-67333333D02*
X170050057Y-67285714D01*
X170954819Y-66857142D02*
X170288152Y-66857142D01*
X169954819Y-66857142D02*
X170002438Y-66904761D01*
X170002438Y-66904761D02*
X170050057Y-66857142D01*
X170050057Y-66857142D02*
X170002438Y-66809523D01*
X170002438Y-66809523D02*
X169954819Y-66857142D01*
X169954819Y-66857142D02*
X170050057Y-66857142D01*
X170907200Y-66428571D02*
X170954819Y-66333333D01*
X170954819Y-66333333D02*
X170954819Y-66142857D01*
X170954819Y-66142857D02*
X170907200Y-66047619D01*
X170907200Y-66047619D02*
X170811961Y-66000000D01*
X170811961Y-66000000D02*
X170764342Y-66000000D01*
X170764342Y-66000000D02*
X170669104Y-66047619D01*
X170669104Y-66047619D02*
X170621485Y-66142857D01*
X170621485Y-66142857D02*
X170621485Y-66285714D01*
X170621485Y-66285714D02*
X170573866Y-66380952D01*
X170573866Y-66380952D02*
X170478628Y-66428571D01*
X170478628Y-66428571D02*
X170431009Y-66428571D01*
X170431009Y-66428571D02*
X170335771Y-66380952D01*
X170335771Y-66380952D02*
X170288152Y-66285714D01*
X170288152Y-66285714D02*
X170288152Y-66142857D01*
X170288152Y-66142857D02*
X170335771Y-66047619D01*
X170288152Y-65714285D02*
X170288152Y-65333333D01*
X169954819Y-65571428D02*
X170811961Y-65571428D01*
X170811961Y-65571428D02*
X170907200Y-65523809D01*
X170907200Y-65523809D02*
X170954819Y-65428571D01*
X170954819Y-65428571D02*
X170954819Y-65333333D01*
X170907200Y-64619047D02*
X170954819Y-64714285D01*
X170954819Y-64714285D02*
X170954819Y-64904761D01*
X170954819Y-64904761D02*
X170907200Y-64999999D01*
X170907200Y-64999999D02*
X170811961Y-65047618D01*
X170811961Y-65047618D02*
X170431009Y-65047618D01*
X170431009Y-65047618D02*
X170335771Y-64999999D01*
X170335771Y-64999999D02*
X170288152Y-64904761D01*
X170288152Y-64904761D02*
X170288152Y-64714285D01*
X170288152Y-64714285D02*
X170335771Y-64619047D01*
X170335771Y-64619047D02*
X170431009Y-64571428D01*
X170431009Y-64571428D02*
X170526247Y-64571428D01*
X170526247Y-64571428D02*
X170621485Y-65047618D01*
X170954819Y-64142856D02*
X170288152Y-64142856D01*
X170478628Y-64142856D02*
X170383390Y-64095237D01*
X170383390Y-64095237D02*
X170335771Y-64047618D01*
X170335771Y-64047618D02*
X170288152Y-63952380D01*
X170288152Y-63952380D02*
X170288152Y-63857142D01*
X170288152Y-63523808D02*
X170954819Y-63523808D01*
X170383390Y-63523808D02*
X170335771Y-63476189D01*
X170335771Y-63476189D02*
X170288152Y-63380951D01*
X170288152Y-63380951D02*
X170288152Y-63238094D01*
X170288152Y-63238094D02*
X170335771Y-63142856D01*
X170335771Y-63142856D02*
X170431009Y-63095237D01*
X170431009Y-63095237D02*
X170954819Y-63095237D01*
X170954819Y-62190475D02*
X170431009Y-62190475D01*
X170431009Y-62190475D02*
X170335771Y-62238094D01*
X170335771Y-62238094D02*
X170288152Y-62333332D01*
X170288152Y-62333332D02*
X170288152Y-62523808D01*
X170288152Y-62523808D02*
X170335771Y-62619046D01*
X170907200Y-62190475D02*
X170954819Y-62285713D01*
X170954819Y-62285713D02*
X170954819Y-62523808D01*
X170954819Y-62523808D02*
X170907200Y-62619046D01*
X170907200Y-62619046D02*
X170811961Y-62666665D01*
X170811961Y-62666665D02*
X170716723Y-62666665D01*
X170716723Y-62666665D02*
X170621485Y-62619046D01*
X170621485Y-62619046D02*
X170573866Y-62523808D01*
X170573866Y-62523808D02*
X170573866Y-62285713D01*
X170573866Y-62285713D02*
X170526247Y-62190475D01*
X170954819Y-61190475D02*
X170954819Y-61761903D01*
X170954819Y-61476189D02*
X169954819Y-61476189D01*
X169954819Y-61476189D02*
X170097676Y-61571427D01*
X170097676Y-61571427D02*
X170192914Y-61666665D01*
X170192914Y-61666665D02*
X170240533Y-61761903D01*
X169454819Y-104527036D02*
X168978628Y-104860369D01*
X169454819Y-105098464D02*
X168454819Y-105098464D01*
X168454819Y-105098464D02*
X168454819Y-104717512D01*
X168454819Y-104717512D02*
X168502438Y-104622274D01*
X168502438Y-104622274D02*
X168550057Y-104574655D01*
X168550057Y-104574655D02*
X168645295Y-104527036D01*
X168645295Y-104527036D02*
X168788152Y-104527036D01*
X168788152Y-104527036D02*
X168883390Y-104574655D01*
X168883390Y-104574655D02*
X168931009Y-104622274D01*
X168931009Y-104622274D02*
X168978628Y-104717512D01*
X168978628Y-104717512D02*
X168978628Y-105098464D01*
X169407200Y-103717512D02*
X169454819Y-103812750D01*
X169454819Y-103812750D02*
X169454819Y-104003226D01*
X169454819Y-104003226D02*
X169407200Y-104098464D01*
X169407200Y-104098464D02*
X169311961Y-104146083D01*
X169311961Y-104146083D02*
X168931009Y-104146083D01*
X168931009Y-104146083D02*
X168835771Y-104098464D01*
X168835771Y-104098464D02*
X168788152Y-104003226D01*
X168788152Y-104003226D02*
X168788152Y-103812750D01*
X168788152Y-103812750D02*
X168835771Y-103717512D01*
X168835771Y-103717512D02*
X168931009Y-103669893D01*
X168931009Y-103669893D02*
X169026247Y-103669893D01*
X169026247Y-103669893D02*
X169121485Y-104146083D01*
X169454819Y-103098464D02*
X169407200Y-103193702D01*
X169407200Y-103193702D02*
X169311961Y-103241321D01*
X169311961Y-103241321D02*
X168454819Y-103241321D01*
X169454819Y-102288940D02*
X168931009Y-102288940D01*
X168931009Y-102288940D02*
X168835771Y-102336559D01*
X168835771Y-102336559D02*
X168788152Y-102431797D01*
X168788152Y-102431797D02*
X168788152Y-102622273D01*
X168788152Y-102622273D02*
X168835771Y-102717511D01*
X169407200Y-102288940D02*
X169454819Y-102384178D01*
X169454819Y-102384178D02*
X169454819Y-102622273D01*
X169454819Y-102622273D02*
X169407200Y-102717511D01*
X169407200Y-102717511D02*
X169311961Y-102765130D01*
X169311961Y-102765130D02*
X169216723Y-102765130D01*
X169216723Y-102765130D02*
X169121485Y-102717511D01*
X169121485Y-102717511D02*
X169073866Y-102622273D01*
X169073866Y-102622273D02*
X169073866Y-102384178D01*
X169073866Y-102384178D02*
X169026247Y-102288940D01*
X168788152Y-101907987D02*
X169454819Y-101669892D01*
X168788152Y-101431797D02*
X169454819Y-101669892D01*
X169454819Y-101669892D02*
X169692914Y-101765130D01*
X169692914Y-101765130D02*
X169740533Y-101812749D01*
X169740533Y-101812749D02*
X169788152Y-101907987D01*
X169454819Y-100527035D02*
X169454819Y-101098463D01*
X169454819Y-100812749D02*
X168454819Y-100812749D01*
X168454819Y-100812749D02*
X168597676Y-100907987D01*
X168597676Y-100907987D02*
X168692914Y-101003225D01*
X168692914Y-101003225D02*
X168740533Y-101098463D01*
X170954819Y-92146083D02*
X169954819Y-92146083D01*
X170431009Y-92146083D02*
X170431009Y-91574655D01*
X170954819Y-91574655D02*
X169954819Y-91574655D01*
X170859580Y-90527036D02*
X170907200Y-90574655D01*
X170907200Y-90574655D02*
X170954819Y-90717512D01*
X170954819Y-90717512D02*
X170954819Y-90812750D01*
X170954819Y-90812750D02*
X170907200Y-90955607D01*
X170907200Y-90955607D02*
X170811961Y-91050845D01*
X170811961Y-91050845D02*
X170716723Y-91098464D01*
X170716723Y-91098464D02*
X170526247Y-91146083D01*
X170526247Y-91146083D02*
X170383390Y-91146083D01*
X170383390Y-91146083D02*
X170192914Y-91098464D01*
X170192914Y-91098464D02*
X170097676Y-91050845D01*
X170097676Y-91050845D02*
X170002438Y-90955607D01*
X170002438Y-90955607D02*
X169954819Y-90812750D01*
X169954819Y-90812750D02*
X169954819Y-90717512D01*
X169954819Y-90717512D02*
X170002438Y-90574655D01*
X170002438Y-90574655D02*
X170050057Y-90527036D01*
X170573866Y-90098464D02*
X170573866Y-89336560D01*
X170907200Y-88907988D02*
X170954819Y-88765131D01*
X170954819Y-88765131D02*
X170954819Y-88527036D01*
X170954819Y-88527036D02*
X170907200Y-88431798D01*
X170907200Y-88431798D02*
X170859580Y-88384179D01*
X170859580Y-88384179D02*
X170764342Y-88336560D01*
X170764342Y-88336560D02*
X170669104Y-88336560D01*
X170669104Y-88336560D02*
X170573866Y-88384179D01*
X170573866Y-88384179D02*
X170526247Y-88431798D01*
X170526247Y-88431798D02*
X170478628Y-88527036D01*
X170478628Y-88527036D02*
X170431009Y-88717512D01*
X170431009Y-88717512D02*
X170383390Y-88812750D01*
X170383390Y-88812750D02*
X170335771Y-88860369D01*
X170335771Y-88860369D02*
X170240533Y-88907988D01*
X170240533Y-88907988D02*
X170145295Y-88907988D01*
X170145295Y-88907988D02*
X170050057Y-88860369D01*
X170050057Y-88860369D02*
X170002438Y-88812750D01*
X170002438Y-88812750D02*
X169954819Y-88717512D01*
X169954819Y-88717512D02*
X169954819Y-88479417D01*
X169954819Y-88479417D02*
X170002438Y-88336560D01*
X170954819Y-87336560D02*
X170478628Y-87669893D01*
X170954819Y-87907988D02*
X169954819Y-87907988D01*
X169954819Y-87907988D02*
X169954819Y-87527036D01*
X169954819Y-87527036D02*
X170002438Y-87431798D01*
X170002438Y-87431798D02*
X170050057Y-87384179D01*
X170050057Y-87384179D02*
X170145295Y-87336560D01*
X170145295Y-87336560D02*
X170288152Y-87336560D01*
X170288152Y-87336560D02*
X170383390Y-87384179D01*
X170383390Y-87384179D02*
X170431009Y-87431798D01*
X170431009Y-87431798D02*
X170478628Y-87527036D01*
X170478628Y-87527036D02*
X170478628Y-87907988D01*
X169954819Y-86717512D02*
X169954819Y-86622274D01*
X169954819Y-86622274D02*
X170002438Y-86527036D01*
X170002438Y-86527036D02*
X170050057Y-86479417D01*
X170050057Y-86479417D02*
X170145295Y-86431798D01*
X170145295Y-86431798D02*
X170335771Y-86384179D01*
X170335771Y-86384179D02*
X170573866Y-86384179D01*
X170573866Y-86384179D02*
X170764342Y-86431798D01*
X170764342Y-86431798D02*
X170859580Y-86479417D01*
X170859580Y-86479417D02*
X170907200Y-86527036D01*
X170907200Y-86527036D02*
X170954819Y-86622274D01*
X170954819Y-86622274D02*
X170954819Y-86717512D01*
X170954819Y-86717512D02*
X170907200Y-86812750D01*
X170907200Y-86812750D02*
X170859580Y-86860369D01*
X170859580Y-86860369D02*
X170764342Y-86907988D01*
X170764342Y-86907988D02*
X170573866Y-86955607D01*
X170573866Y-86955607D02*
X170335771Y-86955607D01*
X170335771Y-86955607D02*
X170145295Y-86907988D01*
X170145295Y-86907988D02*
X170050057Y-86860369D01*
X170050057Y-86860369D02*
X170002438Y-86812750D01*
X170002438Y-86812750D02*
X169954819Y-86717512D01*
X170288152Y-85527036D02*
X170954819Y-85527036D01*
X169907200Y-85765131D02*
X170621485Y-86003226D01*
X170621485Y-86003226D02*
X170621485Y-85384179D01*
X171050057Y-85241322D02*
X171050057Y-84479417D01*
X169954819Y-84384178D02*
X169954819Y-83812750D01*
X170954819Y-84098464D02*
X169954819Y-84098464D01*
X170954819Y-83050845D02*
X170431009Y-83050845D01*
X170431009Y-83050845D02*
X170335771Y-83098464D01*
X170335771Y-83098464D02*
X170288152Y-83193702D01*
X170288152Y-83193702D02*
X170288152Y-83384178D01*
X170288152Y-83384178D02*
X170335771Y-83479416D01*
X170907200Y-83050845D02*
X170954819Y-83146083D01*
X170954819Y-83146083D02*
X170954819Y-83384178D01*
X170954819Y-83384178D02*
X170907200Y-83479416D01*
X170907200Y-83479416D02*
X170811961Y-83527035D01*
X170811961Y-83527035D02*
X170716723Y-83527035D01*
X170716723Y-83527035D02*
X170621485Y-83479416D01*
X170621485Y-83479416D02*
X170573866Y-83384178D01*
X170573866Y-83384178D02*
X170573866Y-83146083D01*
X170573866Y-83146083D02*
X170526247Y-83050845D01*
X170288152Y-82574654D02*
X170954819Y-82574654D01*
X170383390Y-82574654D02*
X170335771Y-82527035D01*
X170335771Y-82527035D02*
X170288152Y-82431797D01*
X170288152Y-82431797D02*
X170288152Y-82288940D01*
X170288152Y-82288940D02*
X170335771Y-82193702D01*
X170335771Y-82193702D02*
X170431009Y-82146083D01*
X170431009Y-82146083D02*
X170954819Y-82146083D01*
X170288152Y-81241321D02*
X171288152Y-81241321D01*
X170907200Y-81241321D02*
X170954819Y-81336559D01*
X170954819Y-81336559D02*
X170954819Y-81527035D01*
X170954819Y-81527035D02*
X170907200Y-81622273D01*
X170907200Y-81622273D02*
X170859580Y-81669892D01*
X170859580Y-81669892D02*
X170764342Y-81717511D01*
X170764342Y-81717511D02*
X170478628Y-81717511D01*
X170478628Y-81717511D02*
X170383390Y-81669892D01*
X170383390Y-81669892D02*
X170335771Y-81622273D01*
X170335771Y-81622273D02*
X170288152Y-81527035D01*
X170288152Y-81527035D02*
X170288152Y-81336559D01*
X170288152Y-81336559D02*
X170335771Y-81241321D01*
X170288152Y-80336559D02*
X170954819Y-80336559D01*
X170288152Y-80765130D02*
X170811961Y-80765130D01*
X170811961Y-80765130D02*
X170907200Y-80717511D01*
X170907200Y-80717511D02*
X170954819Y-80622273D01*
X170954819Y-80622273D02*
X170954819Y-80479416D01*
X170954819Y-80479416D02*
X170907200Y-80384178D01*
X170907200Y-80384178D02*
X170859580Y-80336559D01*
X170907200Y-79479416D02*
X170954819Y-79574654D01*
X170954819Y-79574654D02*
X170954819Y-79765130D01*
X170954819Y-79765130D02*
X170907200Y-79860368D01*
X170907200Y-79860368D02*
X170811961Y-79907987D01*
X170811961Y-79907987D02*
X170431009Y-79907987D01*
X170431009Y-79907987D02*
X170335771Y-79860368D01*
X170335771Y-79860368D02*
X170288152Y-79765130D01*
X170288152Y-79765130D02*
X170288152Y-79574654D01*
X170288152Y-79574654D02*
X170335771Y-79479416D01*
X170335771Y-79479416D02*
X170431009Y-79431797D01*
X170431009Y-79431797D02*
X170526247Y-79431797D01*
X170526247Y-79431797D02*
X170621485Y-79907987D01*
X170954819Y-78479416D02*
X170954819Y-79050844D01*
X170954819Y-78765130D02*
X169954819Y-78765130D01*
X169954819Y-78765130D02*
X170097676Y-78860368D01*
X170097676Y-78860368D02*
X170192914Y-78955606D01*
X170192914Y-78955606D02*
X170240533Y-79050844D01*
%TO.C,U1*%
D11*
X134600000Y-108540000D02*
X162999999Y-108540000D01*
X134600001Y-60620000D02*
X134600000Y-108540000D01*
X139830120Y-54706880D02*
X157813320Y-54706880D01*
X139830120Y-60599680D02*
X139830120Y-54706880D01*
X157813320Y-54706880D02*
X157813320Y-60599680D01*
X162999999Y-108540000D02*
X163000000Y-60620000D01*
X163000000Y-60620000D02*
X134600001Y-60620000D01*
%TO.C,D1*%
X130545000Y-94670000D02*
X127455000Y-94670000D01*
X129000000Y-100220000D02*
G75*
G02*
X127455170Y-94670000I0J2990000D01*
G01*
X130544830Y-94670000D02*
G75*
G02*
X129000000Y-100220000I-1544830J-2560000D01*
G01*
X131500000Y-97230000D02*
G75*
G02*
X126500000Y-97230000I-2500000J0D01*
G01*
X126500000Y-97230000D02*
G75*
G02*
X131500000Y-97230000I2500000J0D01*
G01*
%TO.C,HC-SR04_Cisterna1*%
X164670000Y-63690000D02*
X164670000Y-71370000D01*
X164670000Y-63690000D02*
X167330000Y-63690000D01*
X164670000Y-71370000D02*
X167330000Y-71370000D01*
X166000000Y-61090000D02*
X167330000Y-61090000D01*
X167330000Y-61090000D02*
X167330000Y-62420000D01*
X167330000Y-63690000D02*
X167330000Y-71370000D01*
%TO.C,R1*%
X127630000Y-84730000D02*
X127630000Y-91270000D01*
X127630000Y-91270000D02*
X127960000Y-91270000D01*
X127960000Y-84730000D02*
X127630000Y-84730000D01*
X130040000Y-84730000D02*
X130370000Y-84730000D01*
X130370000Y-84730000D02*
X130370000Y-91270000D01*
X130370000Y-91270000D02*
X130040000Y-91270000D01*
%TO.C,Relay1*%
X164670000Y-101106560D02*
X164670000Y-106246560D01*
X164670000Y-101106560D02*
X167330000Y-101106560D01*
X164670000Y-106246560D02*
X167330000Y-106246560D01*
X166000000Y-98506560D02*
X167330000Y-98506560D01*
X167330000Y-98506560D02*
X167330000Y-99836560D01*
X167330000Y-101106560D02*
X167330000Y-106246560D01*
%TO.C,HC-SR04_Tanque1*%
X164670000Y-87606560D02*
X164670000Y-79926560D01*
X164670000Y-90206560D02*
X164670000Y-88876560D01*
X166000000Y-90206560D02*
X164670000Y-90206560D01*
X167330000Y-79926560D02*
X164670000Y-79926560D01*
X167330000Y-87606560D02*
X164670000Y-87606560D01*
X167330000Y-87606560D02*
X167330000Y-79926560D01*
%TD*%
M02*
