M48
; DRILL file KiCad 10.0.4 date 2026-07-20T01:24:58
; FORMAT={-:-/ absolute / metric / decimal}
; #@! TF.CreationDate,2026-07-20T01:24:58-03:00
; #@! TF.GenerationSoftware,Kicad,Pcbnew,10.0.4
; #@! TF.FileFunction,Plated,1,2,PTH
FMAT,2
METRIC
; #@! TA.AperFunction,Plated,PTH,ComponentDrill
T1C0.800
; #@! TA.AperFunction,Plated,PTH,ComponentDrill
T2C0.900
; #@! TA.AperFunction,Plated,PTH,ComponentDrill
T3C1.000
%
G90
G05
T1
X129.0Y-84.19
X129.0Y-91.81
X136.1Y-61.72
X136.1Y-64.26
X136.1Y-66.8
X136.1Y-69.34
X136.1Y-71.88
X136.1Y-74.42
X136.1Y-76.96
X136.1Y-79.5
X136.1Y-82.04
X136.1Y-84.58
X136.1Y-87.12
X136.1Y-89.66
X136.1Y-92.2
X136.1Y-94.74
X136.1Y-97.28
X136.1Y-99.82
X136.1Y-102.36
X136.1Y-104.9
X136.1Y-107.44
X161.496Y-104.897
X161.496Y-107.437
X161.5Y-61.72
X161.5Y-64.26
X161.5Y-66.8
X161.5Y-69.34
X161.5Y-71.88
X161.5Y-74.42
X161.5Y-76.96
X161.5Y-79.5
X161.5Y-82.04
X161.5Y-84.58
X161.5Y-87.12
X161.5Y-89.66
X161.5Y-92.2
X161.5Y-94.74
X161.5Y-97.28
X161.5Y-99.82
X161.5Y-102.36
T2
X129.0Y-95.96
X129.0Y-98.5
T3
X166.0Y-62.42
X166.0Y-64.96
X166.0Y-67.5
X166.0Y-70.04
X166.0Y-81.257
X166.0Y-83.797
X166.0Y-86.337
X166.0Y-88.877
X166.0Y-99.837
X166.0Y-102.377
X166.0Y-104.917
M30
